<svg width="142" height="39" viewBox="0 0 142 39" fill="none" xmlns="http://www.w3.org/2000/svg">
<path d="M13.8025 0.845001C26.301 0.845001 33.3931 7.54 33.3931 19.5C33.3931 31.46 26.301 38.155 13.8025 38.155H0V0.845001H13.8025ZM10.2723 29.3475H13.5162C19.4634 29.3475 22.7073 25.8375 22.7073 19.5C22.7073 13.1625 19.4634 9.6525 13.5162 9.6525H10.2723V29.3475Z" fill="#F1B130"/>
<path d="M70.5066 19.5C70.5066 31.46 63.4781 39 52.4107 39C41.3751 39 34.3467 31.46 34.3467 19.5C34.3467 7.54 41.3751 0 52.4107 0C63.4781 0 70.5066 7.54 70.5066 19.5ZM45.1279 19.5C45.1279 26.26 47.7357 30.095 52.4107 30.095C57.1176 30.095 59.7572 26.26 59.7572 19.5C59.7572 12.74 57.1494 8.905 52.4107 8.905C47.7357 8.905 45.1279 12.74 45.1279 19.5Z" fill="#F1B130"/>
<path d="M85.2636 0.845001C97.7939 0.845001 104.854 7.54 104.854 19.5C104.854 31.46 97.7621 38.155 85.2636 38.155H71.4611V0.845001H85.2636ZM81.7335 29.3475H84.9774C90.9245 29.3475 94.1684 25.8375 94.1684 19.5C94.1684 13.1625 90.9245 9.6525 84.9774 9.6525H81.7335V29.3475Z" fill="#F1B130"/>
<path d="M142 19.5C142 31.46 134.972 39 123.904 39C112.869 39 105.84 31.46 105.84 19.5C105.84 7.54 112.869 0 123.904 0C134.972 0 142 7.54 142 19.5ZM116.589 19.5C116.589 26.26 119.197 30.095 123.872 30.095C128.579 30.095 131.219 26.26 131.219 19.5C131.219 12.74 128.611 8.905 123.872 8.905C119.229 8.905 116.589 12.74 116.589 19.5Z" fill="#F1B130"/>
</svg>
