<svg width="1595" height="1593" viewBox="0 0 1595 1593" fill="none" xmlns="http://www.w3.org/2000/svg">
<mask id="mask0_5032_5810" style="mask-type:luminance" maskUnits="userSpaceOnUse" x="0" y="0" width="1595" height="1593">
<path d="M1593.58 0.472656V1592.53H0.472656V0.472656H1593.58Z" fill="white" stroke="white" stroke-width="0.945962"/>
</mask>
<g mask="url(#mask0_5032_5810)">
<path d="M58.0224 27.0817C53.8778 77.1019 20.7215 120.431 -26.4625 137.477C-40.0119 142.415 -54.5178 133.335 -56.4307 119.157L-67.1108 39.0292C-68.7049 26.6038 -60.097 15.2935 -47.6634 13.7005L32.5175 2.86807C46.7046 0.956472 59.1382 12.7447 58.0224 27.0817Z" stroke="#EDEDED" stroke-opacity="0.05" stroke-width="0.945962" stroke-miterlimit="10"/>
</g>
<mask id="mask1_5032_5810" style="mask-type:luminance" maskUnits="userSpaceOnUse" x="0" y="0" width="1595" height="1593">
<path d="M1593.58 0.472656V1592.53H0.472656V0.472656H1593.58Z" fill="white" stroke="white" stroke-width="0.945962"/>
</mask>
<g mask="url(#mask1_5032_5810)">
<path d="M57.3871 99.2452C61.5316 49.225 94.6879 5.89538 141.872 -11.1497C155.421 -16.088 169.927 -7.00792 171.84 7.16978L182.52 87.2977C184.114 99.7231 175.506 111.033 163.073 112.626L82.8919 123.299C68.5454 125.37 56.1118 113.582 57.3871 99.2452Z" stroke="#EDEDED" stroke-opacity="0.05" stroke-width="0.945962" stroke-miterlimit="10"/>
</g>
<mask id="mask2_5032_5810" style="mask-type:luminance" maskUnits="userSpaceOnUse" x="0" y="0" width="1595" height="1593">
<path d="M1593.58 0.472656V1592.53H0.472656V0.472656H1593.58Z" fill="white" stroke="white" stroke-width="0.945962"/>
</mask>
<g mask="url(#mask2_5032_5810)">
<path d="M315.94 -7.169C311.796 42.8512 278.64 86.1808 231.456 103.226C217.906 108.164 203.4 99.0841 201.487 84.9064L190.807 4.7785C189.213 -7.6469 197.821 -18.9572 210.255 -20.5502L290.436 -31.2233C304.782 -33.1349 317.216 -21.506 315.94 -7.169Z" stroke="#EDEDED" stroke-opacity="0.05" stroke-width="0.945962" stroke-miterlimit="10"/>
</g>
<mask id="mask3_5032_5810" style="mask-type:luminance" maskUnits="userSpaceOnUse" x="0" y="0" width="1595" height="1593">
<path d="M1593.58 0.472656V1592.53H0.472656V0.472656H1593.58Z" fill="white" stroke="white" stroke-width="0.945962"/>
</mask>
<g mask="url(#mask3_5032_5810)">
<path d="M315.304 65.1514C319.449 15.1312 352.605 -28.1984 399.789 -45.2435C413.338 -50.1818 427.844 -41.1017 429.757 -26.924L440.437 53.2039C442.031 65.6293 433.424 76.9396 420.99 78.5326L340.809 89.2057C326.622 91.1173 314.188 79.3291 315.304 65.1514Z" stroke="#EDEDED" stroke-opacity="0.05" stroke-width="0.945962" stroke-miterlimit="10"/>
</g>
<mask id="mask4_5032_5810" style="mask-type:luminance" maskUnits="userSpaceOnUse" x="0" y="0" width="1595" height="1593">
<path d="M1593.58 0.472656V1592.53H0.472656V0.472656H1593.58Z" fill="white" stroke="white" stroke-width="0.945962"/>
</mask>
<g mask="url(#mask4_5032_5810)">
<path d="M590.913 -43.6479C586.768 6.37231 553.612 49.7019 506.428 66.747C492.879 71.6853 478.373 62.6052 476.46 48.4275L465.78 -31.7004C464.186 -44.1258 472.794 -55.4361 485.227 -57.0291L565.408 -67.7022C579.595 -69.6138 592.029 -57.8256 590.913 -43.6479Z" stroke="#EDEDED" stroke-opacity="0.05" stroke-width="0.945962" stroke-miterlimit="10"/>
</g>
<mask id="mask5_5032_5810" style="mask-type:luminance" maskUnits="userSpaceOnUse" x="0" y="0" width="1595" height="1593">
<path d="M1593.58 0.472656V1592.53H0.472656V0.472656H1593.58Z" fill="white" stroke="white" stroke-width="0.945962"/>
</mask>
<g mask="url(#mask5_5032_5810)">
<path d="M590.121 28.6749C594.265 -21.3453 627.421 -64.6749 674.605 -81.72C688.155 -86.6583 702.661 -77.5782 704.574 -63.4005L715.254 16.7274C716.848 29.1528 708.24 40.4631 695.806 42.0561L615.625 52.7292C601.438 54.6408 589.005 43.0119 590.121 28.6749Z" stroke="#EDEDED" stroke-opacity="0.05" stroke-width="0.945962" stroke-miterlimit="10"/>
</g>
<mask id="mask6_5032_5810" style="mask-type:luminance" maskUnits="userSpaceOnUse" x="0" y="0" width="1595" height="1593">
<path d="M1593.58 0.472656V1592.53H0.472656V0.472656H1593.58Z" fill="white" stroke="white" stroke-width="0.945962"/>
</mask>
<g mask="url(#mask6_5032_5810)">
<path d="M848.835 -77.7399C844.69 -27.7197 811.534 15.6099 764.35 32.655C750.801 37.5933 736.295 28.5132 734.382 14.3355L723.702 -65.7924C722.108 -78.2178 730.716 -89.5281 743.149 -91.1211L823.33 -101.794C837.517 -103.865 849.951 -92.0769 848.835 -77.7399Z" stroke="#EDEDED" stroke-opacity="0.05" stroke-width="0.945962" stroke-miterlimit="10"/>
</g>
<mask id="mask7_5032_5810" style="mask-type:luminance" maskUnits="userSpaceOnUse" x="0" y="0" width="1595" height="1593">
<path d="M1593.58 0.472656V1592.53H0.472656V0.472656H1593.58Z" fill="white" stroke="white" stroke-width="0.945962"/>
</mask>
<g mask="url(#mask7_5032_5810)">
<path d="M848.199 -5.57513C852.344 -55.5953 885.5 -98.9249 932.684 -115.97C946.234 -120.908 960.74 -111.828 962.653 -97.6505L973.333 -17.5226C974.927 -5.09724 966.319 6.21307 953.885 7.80607L873.704 18.4792C859.358 20.5501 847.084 8.76187 848.199 -5.57513Z" stroke="#EDEDED" stroke-opacity="0.05" stroke-width="0.945962" stroke-miterlimit="10"/>
</g>
<mask id="mask8_5032_5810" style="mask-type:luminance" maskUnits="userSpaceOnUse" x="0" y="0" width="1595" height="1593">
<path d="M1593.58 0.472656V1592.53H0.472656V0.472656H1593.58Z" fill="white" stroke="white" stroke-width="0.945962"/>
</mask>
<g mask="url(#mask8_5032_5810)">
<path d="M1123.66 -114.219C1119.51 -64.1989 1086.35 -20.8693 1039.17 -3.8242C1025.62 1.1141 1011.12 -7.966 1009.2 -22.1437L998.522 -102.431C996.928 -114.856 1005.54 -126.167 1017.97 -127.76L1098.15 -138.433C1112.5 -140.344 1124.93 -128.556 1123.66 -114.219Z" stroke="#EDEDED" stroke-opacity="0.05" stroke-width="0.945962" stroke-miterlimit="10"/>
</g>
<mask id="mask9_5032_5810" style="mask-type:luminance" maskUnits="userSpaceOnUse" x="0" y="0" width="1595" height="1593">
<path d="M1593.58 0.472656V1592.53H0.472656V0.472656H1593.58Z" fill="white" stroke="white" stroke-width="0.945962"/>
</mask>
<g mask="url(#mask9_5032_5810)">
<path d="M15.299 184.309C11.1544 234.329 -22.0019 277.659 -69.1859 294.704C-82.8947 299.642 -97.4006 290.722 -99.3135 276.385L-109.994 196.257C-111.588 183.831 -102.98 172.521 -90.5462 170.928L-10.3653 160.255C3.9812 158.343 16.4148 170.131 15.299 184.309Z" stroke="#EDEDED" stroke-opacity="0.05" stroke-width="0.945962" stroke-miterlimit="10"/>
</g>
<mask id="mask10_5032_5810" style="mask-type:luminance" maskUnits="userSpaceOnUse" x="0" y="0" width="1595" height="1593">
<path d="M1593.58 0.472656V1592.53H0.472656V0.472656H1593.58Z" fill="white" stroke="white" stroke-width="0.945962"/>
</mask>
<g mask="url(#mask10_5032_5810)">
<path d="M14.5034 256.632C18.6479 206.612 51.8042 163.282 98.9882 146.237C112.538 141.299 127.044 150.379 128.956 164.557L139.637 244.684C141.231 257.11 132.623 268.42 120.189 270.013L40.0082 280.686C25.8211 282.598 13.3875 270.969 14.5034 256.632Z" stroke="#EDEDED" stroke-opacity="0.05" stroke-width="0.945962" stroke-miterlimit="10"/>
</g>
<mask id="mask11_5032_5810" style="mask-type:luminance" maskUnits="userSpaceOnUse" x="0" y="0" width="1595" height="1593">
<path d="M1593.58 0.472656V1592.53H0.472656V0.472656H1593.58Z" fill="white" stroke="white" stroke-width="0.945962"/>
</mask>
<g mask="url(#mask11_5032_5810)">
<path d="M273.218 150.221C269.073 200.241 235.917 243.571 188.733 260.616C175.183 265.554 160.678 256.474 158.765 242.296L148.084 162.169C146.49 149.743 155.098 138.433 167.532 136.84L247.713 126.167C262.059 124.096 274.334 135.884 273.218 150.221Z" stroke="#EDEDED" stroke-opacity="0.05" stroke-width="0.945962" stroke-miterlimit="10"/>
</g>
<mask id="mask12_5032_5810" style="mask-type:luminance" maskUnits="userSpaceOnUse" x="0" y="0" width="1595" height="1593">
<path d="M1593.58 0.472656V1592.53H0.472656V0.472656H1593.58Z" fill="white" stroke="white" stroke-width="0.945962"/>
</mask>
<g mask="url(#mask12_5032_5810)">
<path d="M272.578 222.386C276.723 172.366 309.879 129.036 357.063 111.991C370.613 107.053 385.119 116.133 387.031 130.31L397.712 210.438C399.306 222.864 390.698 234.174 378.264 235.767L298.083 246.44C283.737 248.511 271.463 236.723 272.578 222.386Z" stroke="#EDEDED" stroke-opacity="0.05" stroke-width="0.945962" stroke-miterlimit="10"/>
</g>
<mask id="mask13_5032_5810" style="mask-type:luminance" maskUnits="userSpaceOnUse" x="0" y="0" width="1595" height="1593">
<path d="M1593.58 0.472656V1592.53H0.472656V0.472656H1593.58Z" fill="white" stroke="white" stroke-width="0.945962"/>
</mask>
<g mask="url(#mask13_5032_5810)">
<path d="M97.3974 324.019C93.2528 374.039 60.0965 417.368 12.9125 434.413C-0.636914 439.352 -15.1428 430.272 -17.0557 416.094L-27.7358 335.966C-29.3299 323.541 -20.722 312.23 -8.28837 310.637L71.8925 299.964C86.239 298.053 98.6726 309.682 97.3974 324.019Z" stroke="#EDEDED" stroke-opacity="0.05" stroke-width="0.945962" stroke-miterlimit="10"/>
</g>
<mask id="mask14_5032_5810" style="mask-type:luminance" maskUnits="userSpaceOnUse" x="0" y="0" width="1595" height="1593">
<path d="M1593.58 0.472656V1592.53H0.472656V0.472656H1593.58Z" fill="white" stroke="white" stroke-width="0.945962"/>
</mask>
<g mask="url(#mask14_5032_5810)">
<path d="M96.7573 396.179C100.902 346.159 134.058 302.829 181.242 285.784C194.792 280.846 209.297 289.926 211.21 304.103L221.89 384.231C223.485 396.657 214.877 407.967 202.443 409.56L122.262 420.233C108.075 422.304 95.6414 410.516 96.7573 396.179Z" stroke="#EDEDED" stroke-opacity="0.05" stroke-width="0.945962" stroke-miterlimit="10"/>
</g>
<mask id="mask15_5032_5810" style="mask-type:luminance" maskUnits="userSpaceOnUse" x="0" y="0" width="1595" height="1593">
<path d="M1593.58 0.472656V1592.53H0.472656V0.472656H1593.58Z" fill="white" stroke="white" stroke-width="0.945962"/>
</mask>
<g mask="url(#mask15_5032_5810)">
<path d="M355.476 289.768C351.331 339.789 318.175 383.118 270.991 400.163C257.441 405.102 242.935 396.022 241.022 381.844L230.342 301.716C228.748 289.291 237.356 277.98 249.79 276.387L329.971 265.714C344.158 263.803 356.591 275.431 355.476 289.768Z" stroke="#EDEDED" stroke-opacity="0.05" stroke-width="0.945962" stroke-miterlimit="10"/>
</g>
<mask id="mask16_5032_5810" style="mask-type:luminance" maskUnits="userSpaceOnUse" x="0" y="0" width="1595" height="1593">
<path d="M1593.58 0.472656V1592.53H0.472656V0.472656H1593.58Z" fill="white" stroke="white" stroke-width="0.945962"/>
</mask>
<g mask="url(#mask16_5032_5810)">
<path d="M354.675 362.089C358.82 312.069 391.976 268.739 439.16 251.694C452.71 246.756 467.215 255.836 469.128 270.014L479.808 350.141C481.402 362.567 472.795 373.877 460.361 375.47L380.18 386.143C365.993 388.055 353.559 376.426 354.675 362.089Z" stroke="#EDEDED" stroke-opacity="0.05" stroke-width="0.945962" stroke-miterlimit="10"/>
</g>
<mask id="mask17_5032_5810" style="mask-type:luminance" maskUnits="userSpaceOnUse" x="0" y="0" width="1595" height="1593">
<path d="M1593.58 0.472656V1592.53H0.472656V0.472656H1593.58Z" fill="white" stroke="white" stroke-width="0.945962"/>
</mask>
<g mask="url(#mask17_5032_5810)">
<path d="M548.038 113.741C543.893 163.761 510.737 207.09 463.553 224.135C450.004 229.074 435.498 219.994 433.585 205.816L422.905 125.688C421.311 113.263 429.919 101.952 442.352 100.359L522.533 89.6862C536.88 87.6153 549.313 99.4035 548.038 113.741Z" stroke="#EDEDED" stroke-opacity="0.05" stroke-width="0.945962" stroke-miterlimit="10"/>
</g>
<mask id="mask18_5032_5810" style="mask-type:luminance" maskUnits="userSpaceOnUse" x="0" y="0" width="1595" height="1593">
<path d="M1593.58 0.472656V1592.53H0.472656V0.472656H1593.58Z" fill="white" stroke="white" stroke-width="0.945962"/>
</mask>
<g mask="url(#mask18_5032_5810)">
<path d="M547.402 185.901C551.546 135.881 584.703 92.5516 631.887 75.5065C645.436 70.5682 659.942 79.6483 661.855 93.826L672.535 173.954C674.129 186.379 665.521 197.69 653.088 199.283L572.907 209.956C558.72 212.027 546.286 200.238 547.402 185.901Z" stroke="#EDEDED" stroke-opacity="0.05" stroke-width="0.945962" stroke-miterlimit="10"/>
</g>
<mask id="mask19_5032_5810" style="mask-type:luminance" maskUnits="userSpaceOnUse" x="0" y="0" width="1595" height="1593">
<path d="M1593.58 0.472656V1592.53H0.472656V0.472656H1593.58Z" fill="white" stroke="white" stroke-width="0.945962"/>
</mask>
<g mask="url(#mask19_5032_5810)">
<path d="M806.108 79.4911C801.964 129.511 768.807 172.841 721.623 189.886C708.074 194.824 693.568 185.744 691.655 171.567L680.975 91.4386C679.381 79.0132 687.989 67.7029 700.423 66.1099L780.603 55.4369C794.791 53.5253 807.224 65.1541 806.108 79.4911Z" stroke="#EDEDED" stroke-opacity="0.05" stroke-width="0.945962" stroke-miterlimit="10"/>
</g>
<mask id="mask20_5032_5810" style="mask-type:luminance" maskUnits="userSpaceOnUse" x="0" y="0" width="1595" height="1593">
<path d="M1593.58 0.472656V1592.53H0.472656V0.472656H1593.58Z" fill="white" stroke="white" stroke-width="0.945962"/>
</mask>
<g mask="url(#mask20_5032_5810)">
<path d="M805.469 151.812C809.614 101.791 842.77 58.4618 889.954 41.4167C903.503 36.4784 918.009 45.5585 919.922 59.7362L930.602 139.864C932.196 152.289 923.588 163.6 911.155 165.193L830.974 175.866C816.627 177.777 804.194 165.989 805.469 151.812Z" stroke="#EDEDED" stroke-opacity="0.05" stroke-width="0.945962" stroke-miterlimit="10"/>
</g>
<mask id="mask21_5032_5810" style="mask-type:luminance" maskUnits="userSpaceOnUse" x="0" y="0" width="1595" height="1593">
<path d="M1593.58 0.472656V1592.53H0.472656V0.472656H1593.58Z" fill="white" stroke="white" stroke-width="0.945962"/>
</mask>
<g mask="url(#mask21_5032_5810)">
<path d="M630.288 253.448C626.143 303.468 592.987 346.797 545.803 363.842C532.254 368.781 517.748 359.701 515.835 345.523L505.155 265.395C503.561 252.97 512.169 241.659 524.602 240.066L604.783 229.393C618.97 227.322 631.404 239.111 630.288 253.448Z" stroke="#EDEDED" stroke-opacity="0.05" stroke-width="0.945962" stroke-miterlimit="10"/>
</g>
<mask id="mask22_5032_5810" style="mask-type:luminance" maskUnits="userSpaceOnUse" x="0" y="0" width="1595" height="1593">
<path d="M1593.58 0.472656V1592.53H0.472656V0.472656H1593.58Z" fill="white" stroke="white" stroke-width="0.945962"/>
</mask>
<g mask="url(#mask22_5032_5810)">
<path d="M629.657 325.608C633.801 275.588 666.957 232.259 714.141 215.214C727.691 210.275 742.197 219.355 744.11 233.533L754.79 313.661C756.384 326.086 747.776 337.397 735.342 338.99L655.161 349.663C640.815 351.574 628.381 339.945 629.657 325.608Z" stroke="#EDEDED" stroke-opacity="0.05" stroke-width="0.945962" stroke-miterlimit="10"/>
</g>
<mask id="mask23_5032_5810" style="mask-type:luminance" maskUnits="userSpaceOnUse" x="0" y="0" width="1595" height="1593">
<path d="M1593.58 0.472656V1592.53H0.472656V0.472656H1593.58Z" fill="white" stroke="white" stroke-width="0.945962"/>
</mask>
<g mask="url(#mask23_5032_5810)">
<path d="M888.202 219.198C884.058 269.218 850.901 312.547 803.717 329.592C790.168 334.531 775.662 325.451 773.749 311.273L763.069 231.145C761.475 218.72 770.083 207.409 782.516 205.816L862.697 195.143C877.044 193.072 889.477 204.861 888.202 219.198Z" stroke="#EDEDED" stroke-opacity="0.05" stroke-width="0.945962" stroke-miterlimit="10"/>
</g>
<mask id="mask24_5032_5810" style="mask-type:luminance" maskUnits="userSpaceOnUse" x="0" y="0" width="1595" height="1593">
<path d="M1593.58 0.472656V1592.53H0.472656V0.472656H1593.58Z" fill="white" stroke="white" stroke-width="0.945962"/>
</mask>
<g mask="url(#mask24_5032_5810)">
<path d="M887.566 291.362C891.71 241.342 924.867 198.013 972.051 180.967C985.6 176.029 1000.11 185.109 1002.02 199.287L1012.86 279.574C1014.45 292 1005.84 303.31 993.411 304.903L913.23 315.576C898.884 317.488 886.45 305.699 887.566 291.362Z" stroke="#EDEDED" stroke-opacity="0.05" stroke-width="0.945962" stroke-miterlimit="10"/>
</g>
<mask id="mask25_5032_5810" style="mask-type:luminance" maskUnits="userSpaceOnUse" x="0" y="0" width="1595" height="1593">
<path d="M1593.58 0.472656V1592.53H0.472656V0.472656H1593.58Z" fill="white" stroke="white" stroke-width="0.945962"/>
</mask>
<g mask="url(#mask25_5032_5810)">
<path d="M1080.93 43.0107C1076.78 93.0309 1043.63 136.36 996.444 153.406C982.894 158.344 968.388 149.264 966.476 135.086L955.795 54.9582C954.201 42.5328 962.809 31.2225 975.243 29.6295L1055.42 18.9564C1069.61 17.0448 1082.04 28.6737 1080.93 43.0107Z" stroke="#EDEDED" stroke-opacity="0.05" stroke-width="0.945962" stroke-miterlimit="10"/>
</g>
<mask id="mask26_5032_5810" style="mask-type:luminance" maskUnits="userSpaceOnUse" x="0" y="0" width="1595" height="1593">
<path d="M1593.58 0.472656V1592.53H0.472656V0.472656H1593.58Z" fill="white" stroke="white" stroke-width="0.945962"/>
</mask>
<g mask="url(#mask26_5032_5810)">
<path d="M1080.3 115.331C1084.44 65.3109 1117.6 21.9813 1164.78 4.93622C1178.33 -0.00207909 1192.84 9.07802 1194.75 23.2557L1205.43 103.384C1207.02 115.809 1198.42 127.119 1185.98 128.712L1105.8 139.385C1091.46 141.297 1079.02 129.668 1080.3 115.331Z" stroke="#EDEDED" stroke-opacity="0.05" stroke-width="0.945962" stroke-miterlimit="10"/>
</g>
<mask id="mask27_5032_5810" style="mask-type:luminance" maskUnits="userSpaceOnUse" x="0" y="0" width="1595" height="1593">
<path d="M1593.58 0.472656V1592.53H0.472656V0.472656H1593.58Z" fill="white" stroke="white" stroke-width="0.945962"/>
</mask>
<g mask="url(#mask27_5032_5810)">
<path d="M1339 8.92023C1334.85 58.9404 1301.7 102.27 1254.51 119.315C1240.96 124.253 1226.46 115.173 1224.55 100.996L1213.87 20.8677C1212.27 8.44233 1220.88 -2.86797 1233.31 -4.46097L1313.49 -15.1341C1327.68 -17.205 1340.11 -5.41677 1339 8.92023Z" stroke="#EDEDED" stroke-opacity="0.05" stroke-width="0.945962" stroke-miterlimit="10"/>
</g>
<mask id="mask28_5032_5810" style="mask-type:luminance" maskUnits="userSpaceOnUse" x="0" y="0" width="1595" height="1593">
<path d="M1593.58 0.472656V1592.53H0.472656V0.472656H1593.58Z" fill="white" stroke="white" stroke-width="0.945962"/>
</mask>
<g mask="url(#mask28_5032_5810)">
<path d="M1338.21 81.085C1342.35 31.0648 1375.51 -12.2648 1422.69 -29.3099C1436.24 -34.2482 1450.75 -25.1681 1452.66 -10.9904L1463.34 69.1375C1464.93 81.5629 1456.33 92.8732 1443.89 94.4662L1363.71 105.139C1349.52 107.21 1337.09 95.422 1338.21 81.085Z" stroke="#EDEDED" stroke-opacity="0.05" stroke-width="0.945962" stroke-miterlimit="10"/>
</g>
<mask id="mask29_5032_5810" style="mask-type:luminance" maskUnits="userSpaceOnUse" x="0" y="0" width="1595" height="1593">
<path d="M1593.58 0.472656V1592.53H0.472656V0.472656H1593.58Z" fill="white" stroke="white" stroke-width="0.945962"/>
</mask>
<g mask="url(#mask29_5032_5810)">
<path d="M1163.19 182.718C1159.04 232.738 1125.89 276.067 1078.7 293.113C1065.15 298.051 1050.65 288.971 1048.73 274.793L1038.05 194.665C1036.46 182.24 1045.07 170.93 1057.5 169.337L1137.68 158.663C1151.87 156.752 1164.3 168.381 1163.19 182.718Z" stroke="#EDEDED" stroke-opacity="0.05" stroke-width="0.945962" stroke-miterlimit="10"/>
</g>
<mask id="mask30_5032_5810" style="mask-type:luminance" maskUnits="userSpaceOnUse" x="0" y="0" width="1595" height="1593">
<path d="M1593.58 0.472656V1592.53H0.472656V0.472656H1593.58Z" fill="white" stroke="white" stroke-width="0.945962"/>
</mask>
<g mask="url(#mask30_5032_5810)">
<path d="M1162.39 254.878C1166.53 204.858 1199.69 161.528 1246.87 144.483C1260.42 139.545 1274.93 148.625 1276.84 162.803L1287.52 242.931C1289.11 255.356 1280.51 266.666 1268.07 268.259L1187.89 278.932C1173.7 281.003 1161.27 269.215 1162.39 254.878Z" stroke="#EDEDED" stroke-opacity="0.05" stroke-width="0.945962" stroke-miterlimit="10"/>
</g>
<mask id="mask31_5032_5810" style="mask-type:luminance" maskUnits="userSpaceOnUse" x="0" y="0" width="1595" height="1593">
<path d="M1593.58 0.472656V1592.53H0.472656V0.472656H1593.58Z" fill="white" stroke="white" stroke-width="0.945962"/>
</mask>
<g mask="url(#mask31_5032_5810)">
<path d="M1421.09 148.468C1416.95 198.488 1383.79 241.817 1336.61 258.863C1323.06 263.801 1308.55 254.721 1306.64 240.543L1295.96 160.415C1294.37 147.99 1302.97 136.68 1315.41 135.087L1395.59 124.413C1409.93 122.502 1422.21 134.131 1421.09 148.468Z" stroke="#EDEDED" stroke-opacity="0.05" stroke-width="0.945962" stroke-miterlimit="10"/>
</g>
<mask id="mask32_5032_5810" style="mask-type:luminance" maskUnits="userSpaceOnUse" x="0" y="0" width="1595" height="1593">
<path d="M1593.58 0.472656V1592.53H0.472656V0.472656H1593.58Z" fill="white" stroke="white" stroke-width="0.945962"/>
</mask>
<g mask="url(#mask32_5032_5810)">
<path d="M1420.46 220.788C1424.6 170.768 1457.76 127.438 1504.94 110.393C1518.49 105.455 1533 114.535 1534.91 128.713L1545.59 208.841C1547.18 221.266 1538.58 232.576 1526.14 234.169L1445.96 244.842C1431.62 246.754 1419.34 235.125 1420.46 220.788Z" stroke="#EDEDED" stroke-opacity="0.05" stroke-width="0.945962" stroke-miterlimit="10"/>
</g>
<mask id="mask33_5032_5810" style="mask-type:luminance" maskUnits="userSpaceOnUse" x="0" y="0" width="1595" height="1593">
<path d="M1593.58 0.472656V1592.53H0.472656V0.472656H1593.58Z" fill="white" stroke="white" stroke-width="0.945962"/>
</mask>
<g mask="url(#mask33_5032_5810)">
<path d="M1613.82 -27.559C1609.67 22.4612 1576.52 65.7909 1529.33 82.836C1515.78 87.7743 1501.28 78.6942 1499.37 64.5165L1488.69 -15.6115C1487.09 -28.0369 1495.7 -39.3472 1508.13 -40.9402L1588.31 -51.7726C1602.5 -53.6842 1614.94 -41.896 1613.82 -27.559Z" stroke="#EDEDED" stroke-opacity="0.05" stroke-width="0.945962" stroke-miterlimit="10"/>
</g>
<mask id="mask34_5032_5810" style="mask-type:luminance" maskUnits="userSpaceOnUse" x="0" y="0" width="1595" height="1593">
<path d="M1593.58 0.472656V1592.53H0.472656V0.472656H1593.58Z" fill="white" stroke="white" stroke-width="0.945962"/>
</mask>
<g mask="url(#mask34_5032_5810)">
<path d="M1695.91 112.147C1691.77 162.167 1658.61 205.497 1611.43 222.542C1597.88 227.48 1583.37 218.4 1581.46 204.222L1570.78 124.094C1569.19 111.669 1577.79 100.359 1590.23 98.7656L1670.41 88.0925C1684.75 86.0216 1697.19 97.8098 1695.91 112.147Z" stroke="#EDEDED" stroke-opacity="0.05" stroke-width="0.945962" stroke-miterlimit="10"/>
</g>
<mask id="mask35_5032_5810" style="mask-type:luminance" maskUnits="userSpaceOnUse" x="0" y="0" width="1595" height="1593">
<path d="M1593.58 0.472656V1592.53H0.472656V0.472656H1593.58Z" fill="white" stroke="white" stroke-width="0.945962"/>
</mask>
<g mask="url(#mask35_5032_5810)">
<path d="M54.6747 481.405C50.5302 531.425 17.3739 574.754 -29.8101 591.799C-43.3596 596.738 -57.8655 587.658 -59.7783 573.48L-70.4585 493.352C-72.0525 480.927 -63.4446 469.616 -51.011 468.023L29.1699 457.35C43.3569 455.279 55.7906 467.068 54.6747 481.405Z" stroke="#EDEDED" stroke-opacity="0.05" stroke-width="0.945962" stroke-miterlimit="10"/>
</g>
<mask id="mask36_5032_5810" style="mask-type:luminance" maskUnits="userSpaceOnUse" x="0" y="0" width="1595" height="1593">
<path d="M1593.58 0.472656V1592.53H0.472656V0.472656H1593.58Z" fill="white" stroke="white" stroke-width="0.945962"/>
</mask>
<g mask="url(#mask36_5032_5810)">
<path d="M54.0355 553.565C58.18 503.545 91.3364 460.216 138.52 443.171C152.07 438.232 166.576 447.312 168.489 461.49L179.169 541.618C180.763 554.043 172.155 565.354 159.721 566.947L79.5404 577.62C65.1939 579.531 52.7603 567.902 54.0355 553.565Z" stroke="#EDEDED" stroke-opacity="0.05" stroke-width="0.945962" stroke-miterlimit="10"/>
</g>
<mask id="mask37_5032_5810" style="mask-type:luminance" maskUnits="userSpaceOnUse" x="0" y="0" width="1595" height="1593">
<path d="M1593.58 0.472656V1592.53H0.472656V0.472656H1593.58Z" fill="white" stroke="white" stroke-width="0.945962"/>
</mask>
<g mask="url(#mask37_5032_5810)">
<path d="M312.593 447.155C308.448 497.175 275.292 540.504 228.108 557.549C214.558 562.488 200.053 553.408 198.14 539.23L187.459 459.102C185.865 446.677 194.473 435.366 206.907 433.773L287.088 423.1C301.434 421.029 313.868 432.818 312.593 447.155Z" stroke="#EDEDED" stroke-opacity="0.05" stroke-width="0.945962" stroke-miterlimit="10"/>
</g>
<mask id="mask38_5032_5810" style="mask-type:luminance" maskUnits="userSpaceOnUse" x="0" y="0" width="1595" height="1593">
<path d="M1593.58 0.472656V1592.53H0.472656V0.472656H1593.58Z" fill="white" stroke="white" stroke-width="0.945962"/>
</mask>
<g mask="url(#mask38_5032_5810)">
<path d="M311.956 519.315C316.101 469.295 349.257 425.966 396.441 408.921C409.991 403.982 424.497 413.062 426.41 427.24L437.09 507.368C438.684 519.793 430.076 531.104 417.642 532.697L337.461 543.37C323.274 545.441 310.841 533.652 311.956 519.315Z" stroke="#EDEDED" stroke-opacity="0.05" stroke-width="0.945962" stroke-miterlimit="10"/>
</g>
<mask id="mask39_5032_5810" style="mask-type:luminance" maskUnits="userSpaceOnUse" x="0" y="0" width="1595" height="1593">
<path d="M1593.58 0.472656V1592.53H0.472656V0.472656H1593.58Z" fill="white" stroke="white" stroke-width="0.945962"/>
</mask>
<g mask="url(#mask39_5032_5810)">
<path d="M136.933 620.952C132.788 670.972 99.6317 714.302 52.4477 731.347C38.8982 736.285 24.3924 727.205 22.4795 713.027L11.7993 632.9C10.2053 620.474 18.8132 609.164 31.2468 607.571L111.428 596.898C125.615 594.986 138.048 606.615 136.933 620.952Z" stroke="#EDEDED" stroke-opacity="0.05" stroke-width="0.945962" stroke-miterlimit="10"/>
</g>
<mask id="mask40_5032_5810" style="mask-type:luminance" maskUnits="userSpaceOnUse" x="0" y="0" width="1595" height="1593">
<path d="M1593.58 0.472656V1592.53H0.472656V0.472656H1593.58Z" fill="white" stroke="white" stroke-width="0.945962"/>
</mask>
<g mask="url(#mask40_5032_5810)">
<path d="M136.132 693.273C140.277 643.252 173.433 599.923 220.617 582.878C234.167 577.939 248.672 587.019 250.585 601.197L261.265 681.325C262.86 693.75 254.252 705.061 241.818 706.654L161.637 717.327C147.45 719.238 135.016 707.61 136.132 693.273Z" stroke="#EDEDED" stroke-opacity="0.05" stroke-width="0.945962" stroke-miterlimit="10"/>
</g>
<mask id="mask41_5032_5810" style="mask-type:luminance" maskUnits="userSpaceOnUse" x="0" y="0" width="1595" height="1593">
<path d="M1593.58 0.472656V1592.53H0.472656V0.472656H1593.58Z" fill="white" stroke="white" stroke-width="0.945962"/>
</mask>
<g mask="url(#mask41_5032_5810)">
<path d="M394.85 586.862C390.706 636.882 357.55 680.211 310.366 697.257C296.816 702.195 282.31 693.115 280.397 678.937L269.717 598.809C268.123 586.384 276.731 575.073 289.165 573.48L369.346 562.807C383.533 560.736 395.966 572.525 394.85 586.862Z" stroke="#EDEDED" stroke-opacity="0.05" stroke-width="0.945962" stroke-miterlimit="10"/>
</g>
<mask id="mask42_5032_5810" style="mask-type:luminance" maskUnits="userSpaceOnUse" x="0" y="0" width="1595" height="1593">
<path d="M1593.58 0.472656V1592.53H0.472656V0.472656H1593.58Z" fill="white" stroke="white" stroke-width="0.945962"/>
</mask>
<g mask="url(#mask42_5032_5810)">
<path d="M394.211 659.026C398.356 609.006 431.512 565.677 478.696 548.632C492.246 543.693 506.751 552.773 508.664 566.951L519.344 647.079C520.938 659.504 512.331 670.815 499.897 672.408L419.716 683.081C405.37 684.992 393.095 673.363 394.211 659.026Z" stroke="#EDEDED" stroke-opacity="0.05" stroke-width="0.945962" stroke-miterlimit="10"/>
</g>
<mask id="mask43_5032_5810" style="mask-type:luminance" maskUnits="userSpaceOnUse" x="0" y="0" width="1595" height="1593">
<path d="M1593.58 0.472656V1592.53H0.472656V0.472656H1593.58Z" fill="white" stroke="white" stroke-width="0.945962"/>
</mask>
<g mask="url(#mask43_5032_5810)">
<path d="M587.569 410.675C583.425 460.695 550.268 504.025 503.084 521.07C489.535 526.008 475.029 516.928 473.116 502.75L462.436 422.622C460.842 410.197 469.45 398.887 481.883 397.294L562.064 386.62C576.251 384.709 588.685 396.338 587.569 410.675Z" stroke="#EDEDED" stroke-opacity="0.05" stroke-width="0.945962" stroke-miterlimit="10"/>
</g>
<mask id="mask44_5032_5810" style="mask-type:luminance" maskUnits="userSpaceOnUse" x="0" y="0" width="1595" height="1593">
<path d="M1593.58 0.472656V1592.53H0.472656V0.472656H1593.58Z" fill="white" stroke="white" stroke-width="0.945962"/>
</mask>
<g mask="url(#mask44_5032_5810)">
<path d="M586.769 482.839C590.914 432.819 624.07 389.489 671.254 372.444C684.803 367.506 699.309 376.586 701.222 390.764L711.902 470.891C713.496 483.317 704.888 494.627 692.455 496.22L612.274 506.893C598.087 508.964 585.653 497.176 586.769 482.839Z" stroke="#EDEDED" stroke-opacity="0.05" stroke-width="0.945962" stroke-miterlimit="10"/>
</g>
<mask id="mask45_5032_5810" style="mask-type:luminance" maskUnits="userSpaceOnUse" x="0" y="0" width="1595" height="1593">
<path d="M1593.58 0.472656V1592.53H0.472656V0.472656H1593.58Z" fill="white" stroke="white" stroke-width="0.945962"/>
</mask>
<g mask="url(#mask45_5032_5810)">
<path d="M845.483 376.425C841.339 426.445 808.182 469.775 760.998 486.82C747.449 491.758 732.943 482.678 731.03 468.5L720.35 388.372C718.756 375.947 727.364 364.637 739.798 363.044L819.978 352.37C834.325 350.459 846.759 362.088 845.483 376.425Z" stroke="#EDEDED" stroke-opacity="0.05" stroke-width="0.945962" stroke-miterlimit="10"/>
</g>
<mask id="mask46_5032_5810" style="mask-type:luminance" maskUnits="userSpaceOnUse" x="0" y="0" width="1595" height="1593">
<path d="M1593.58 0.472656V1592.53H0.472656V0.472656H1593.58Z" fill="white" stroke="white" stroke-width="0.945962"/>
</mask>
<g mask="url(#mask46_5032_5810)">
<path d="M844.855 448.749C848.999 398.729 882.156 355.399 929.34 338.354C942.889 333.416 957.395 342.496 959.308 356.674L969.988 436.802C971.582 449.227 962.974 460.537 950.541 462.13L870.36 472.803C856.173 474.715 843.739 463.086 844.855 448.749Z" stroke="#EDEDED" stroke-opacity="0.05" stroke-width="0.945962" stroke-miterlimit="10"/>
</g>
<mask id="mask47_5032_5810" style="mask-type:luminance" maskUnits="userSpaceOnUse" x="0" y="0" width="1595" height="1593">
<path d="M1593.58 0.472656V1592.53H0.472656V0.472656H1593.58Z" fill="white" stroke="white" stroke-width="0.945962"/>
</mask>
<g mask="url(#mask47_5032_5810)">
<path d="M669.663 550.381C665.518 600.401 632.362 643.731 585.178 660.776C571.629 665.714 557.123 656.634 555.21 642.457L544.53 562.329C542.936 549.903 551.544 538.593 563.977 537L644.158 526.327C658.505 524.256 670.938 536.044 669.663 550.381Z" stroke="#EDEDED" stroke-opacity="0.05" stroke-width="0.945962" stroke-miterlimit="10"/>
</g>
<mask id="mask48_5032_5810" style="mask-type:luminance" maskUnits="userSpaceOnUse" x="0" y="0" width="1595" height="1593">
<path d="M1593.58 0.472656V1592.53H0.472656V0.472656H1593.58Z" fill="white" stroke="white" stroke-width="0.945962"/>
</mask>
<g mask="url(#mask48_5032_5810)">
<path d="M669.027 622.542C673.171 572.522 706.328 529.192 753.512 512.147C767.061 507.209 781.567 516.289 783.48 530.467L794.16 610.595C795.754 623.02 787.146 634.33 774.713 635.923L694.532 646.596C680.345 648.667 667.911 636.879 669.027 622.542Z" stroke="#EDEDED" stroke-opacity="0.05" stroke-width="0.945962" stroke-miterlimit="10"/>
</g>
<mask id="mask49_5032_5810" style="mask-type:luminance" maskUnits="userSpaceOnUse" x="0" y="0" width="1595" height="1593">
<path d="M1593.58 0.472656V1592.53H0.472656V0.472656H1593.58Z" fill="white" stroke="white" stroke-width="0.945962"/>
</mask>
<g mask="url(#mask49_5032_5810)">
<path d="M927.741 516.131C923.597 566.151 890.44 609.481 843.256 626.526C829.707 631.464 815.201 622.384 813.288 608.207L802.608 528.079C801.014 515.653 809.622 504.343 822.055 502.75L902.236 492.077C916.423 490.006 928.857 501.794 927.741 516.131Z" stroke="#EDEDED" stroke-opacity="0.05" stroke-width="0.945962" stroke-miterlimit="10"/>
</g>
<mask id="mask50_5032_5810" style="mask-type:luminance" maskUnits="userSpaceOnUse" x="0" y="0" width="1595" height="1593">
<path d="M1593.58 0.472656V1592.53H0.472656V0.472656H1593.58Z" fill="white" stroke="white" stroke-width="0.945962"/>
</mask>
<g mask="url(#mask50_5032_5810)">
<path d="M927.11 588.292C931.254 538.272 964.411 494.942 1011.59 477.897C1025.14 472.959 1039.65 482.039 1041.56 496.217L1052.24 576.345C1053.84 588.77 1045.23 600.08 1032.8 601.673L952.615 612.346C938.268 614.417 925.834 602.629 927.11 588.292Z" stroke="#EDEDED" stroke-opacity="0.05" stroke-width="0.945962" stroke-miterlimit="10"/>
</g>
<mask id="mask51_5032_5810" style="mask-type:luminance" maskUnits="userSpaceOnUse" x="0" y="0" width="1595" height="1593">
<path d="M1593.58 0.472656V1592.53H0.472656V0.472656H1593.58Z" fill="white" stroke="white" stroke-width="0.945962"/>
</mask>
<g mask="url(#mask51_5032_5810)">
<path d="M1120.3 340.104C1116.15 390.124 1082.99 433.454 1035.81 450.499C1022.26 455.437 1007.76 446.357 1005.84 432.179L995.163 352.051C993.569 339.626 1002.18 328.316 1014.61 326.723L1094.79 316.05C1109.14 313.979 1121.57 325.767 1120.3 340.104Z" stroke="#EDEDED" stroke-opacity="0.05" stroke-width="0.945962" stroke-miterlimit="10"/>
</g>
<mask id="mask52_5032_5810" style="mask-type:luminance" maskUnits="userSpaceOnUse" x="0" y="0" width="1595" height="1593">
<path d="M1593.58 0.472656V1592.53H0.472656V0.472656H1593.58Z" fill="white" stroke="white" stroke-width="0.945962"/>
</mask>
<g mask="url(#mask52_5032_5810)">
<path d="M1119.67 412.269C1123.81 362.248 1156.97 318.919 1204.15 301.874C1217.7 296.935 1232.21 306.016 1234.12 320.193L1244.8 400.321C1246.39 412.746 1237.79 424.057 1225.35 425.65L1145.17 436.323C1130.99 438.235 1118.55 426.606 1119.67 412.269Z" stroke="#EDEDED" stroke-opacity="0.05" stroke-width="0.945962" stroke-miterlimit="10"/>
</g>
<mask id="mask53_5032_5810" style="mask-type:luminance" maskUnits="userSpaceOnUse" x="0" y="0" width="1595" height="1593">
<path d="M1593.58 0.472656V1592.53H0.472656V0.472656H1593.58Z" fill="white" stroke="white" stroke-width="0.945962"/>
</mask>
<g mask="url(#mask53_5032_5810)">
<path d="M1378.38 305.854C1374.24 355.874 1341.08 399.204 1293.9 416.249C1280.35 421.187 1265.84 412.107 1263.93 397.929L1253.25 317.801C1251.65 305.376 1260.26 294.066 1272.7 292.473L1352.88 281.8C1367.06 279.729 1379.5 291.517 1378.38 305.854Z" stroke="#EDEDED" stroke-opacity="0.05" stroke-width="0.945962" stroke-miterlimit="10"/>
</g>
<mask id="mask54_5032_5810" style="mask-type:luminance" maskUnits="userSpaceOnUse" x="0" y="0" width="1595" height="1593">
<path d="M1593.58 0.472656V1592.53H0.472656V0.472656H1593.58Z" fill="white" stroke="white" stroke-width="0.945962"/>
</mask>
<g mask="url(#mask54_5032_5810)">
<path d="M1377.74 378.019C1381.89 327.998 1415.04 284.669 1462.23 267.624C1475.78 262.685 1490.28 271.766 1492.2 285.943L1502.88 366.071C1504.47 378.496 1495.86 389.807 1483.43 391.4L1403.25 402.073C1388.9 404.144 1376.47 392.356 1377.74 378.019Z" stroke="#EDEDED" stroke-opacity="0.05" stroke-width="0.945962" stroke-miterlimit="10"/>
</g>
<mask id="mask55_5032_5810" style="mask-type:luminance" maskUnits="userSpaceOnUse" x="0" y="0" width="1595" height="1593">
<path d="M1593.58 0.472656V1592.53H0.472656V0.472656H1593.58Z" fill="white" stroke="white" stroke-width="0.945962"/>
</mask>
<g mask="url(#mask55_5032_5810)">
<path d="M1202.55 479.651C1198.41 529.672 1165.25 573.001 1118.07 590.046C1104.52 594.984 1090.01 585.904 1088.1 571.727L1077.42 491.599C1075.83 479.173 1084.43 467.863 1096.87 466.27L1177.05 455.597C1191.24 453.685 1203.67 465.314 1202.55 479.651Z" stroke="#EDEDED" stroke-opacity="0.05" stroke-width="0.945962" stroke-miterlimit="10"/>
</g>
<mask id="mask56_5032_5810" style="mask-type:luminance" maskUnits="userSpaceOnUse" x="0" y="0" width="1595" height="1593">
<path d="M1593.58 0.472656V1592.53H0.472656V0.472656H1593.58Z" fill="white" stroke="white" stroke-width="0.945962"/>
</mask>
<g mask="url(#mask56_5032_5810)">
<path d="M1201.91 551.972C1206.06 501.952 1239.22 458.622 1286.4 441.577C1299.95 436.639 1314.45 445.719 1316.37 459.896L1327.05 540.024C1328.64 552.45 1320.03 563.76 1307.6 565.353L1227.42 576.026C1213.07 577.938 1200.64 566.149 1201.91 551.972Z" stroke="#EDEDED" stroke-opacity="0.05" stroke-width="0.945962" stroke-miterlimit="10"/>
</g>
<mask id="mask57_5032_5810" style="mask-type:luminance" maskUnits="userSpaceOnUse" x="0" y="0" width="1595" height="1593">
<path d="M1593.58 0.472656V1592.53H0.472656V0.472656H1593.58Z" fill="white" stroke="white" stroke-width="0.945962"/>
</mask>
<g mask="url(#mask57_5032_5810)">
<path d="M1460.47 445.403C1456.32 495.423 1423.17 538.753 1375.98 555.798C1362.43 560.736 1347.93 551.656 1346.01 537.478L1335.33 457.35C1333.74 444.925 1342.35 433.615 1354.78 432.022L1434.96 421.349C1449.31 419.437 1461.74 431.225 1460.47 445.403Z" stroke="#EDEDED" stroke-opacity="0.05" stroke-width="0.945962" stroke-miterlimit="10"/>
</g>
<mask id="mask58_5032_5810" style="mask-type:luminance" maskUnits="userSpaceOnUse" x="0" y="0" width="1595" height="1593">
<path d="M1593.58 0.472656V1592.53H0.472656V0.472656H1593.58Z" fill="white" stroke="white" stroke-width="0.945962"/>
</mask>
<g mask="url(#mask58_5032_5810)">
<path d="M1459.84 517.726C1463.98 467.705 1497.14 424.376 1544.32 407.331C1557.87 402.392 1572.38 411.473 1574.29 425.65L1584.97 505.778C1586.57 518.204 1577.96 529.514 1565.52 531.107L1485.34 541.78C1471.16 543.692 1458.72 532.063 1459.84 517.726Z" stroke="#EDEDED" stroke-opacity="0.05" stroke-width="0.945962" stroke-miterlimit="10"/>
</g>
<mask id="mask59_5032_5810" style="mask-type:luminance" maskUnits="userSpaceOnUse" x="0" y="0" width="1595" height="1593">
<path d="M1593.58 0.472656V1592.53H0.472656V0.472656H1593.58Z" fill="white" stroke="white" stroke-width="0.945962"/>
</mask>
<g mask="url(#mask59_5032_5810)">
<path d="M1653.19 269.377C1649.05 319.397 1615.89 362.727 1568.71 379.772C1555.16 384.71 1540.65 375.63 1538.74 361.453L1528.06 281.325C1526.47 268.899 1535.08 257.589 1547.51 255.996L1627.69 245.323C1641.88 243.252 1654.31 255.04 1653.19 269.377Z" stroke="#EDEDED" stroke-opacity="0.05" stroke-width="0.945962" stroke-miterlimit="10"/>
</g>
<mask id="mask60_5032_5810" style="mask-type:luminance" maskUnits="userSpaceOnUse" x="0" y="0" width="1595" height="1593">
<path d="M1593.58 0.472656V1592.53H0.472656V0.472656H1593.58Z" fill="white" stroke="white" stroke-width="0.945962"/>
</mask>
<g mask="url(#mask60_5032_5810)">
<path d="M-99.313 1026.53C-95.1685 976.506 -62.0122 933.177 -14.8282 916.132C-1.27875 911.193 13.2271 920.273 15.14 934.451L25.8202 1014.58C27.4142 1027 18.8063 1038.31 6.37271 1039.91L-73.8082 1050.58C-87.9953 1052.65 -100.429 1040.86 -99.313 1026.53Z" stroke="#EDEDED" stroke-opacity="0.05" stroke-width="0.945962" stroke-miterlimit="10"/>
</g>
<mask id="mask61_5032_5810" style="mask-type:luminance" maskUnits="userSpaceOnUse" x="0" y="0" width="1595" height="1593">
<path d="M1593.58 0.472656V1592.53H0.472656V0.472656H1593.58Z" fill="white" stroke="white" stroke-width="0.945962"/>
</mask>
<g mask="url(#mask61_5032_5810)">
<path d="M94.0497 778.338C89.9052 828.358 56.7489 871.688 9.56489 888.733C-3.98456 893.671 -18.4905 884.591 -20.4033 870.414L-31.0835 790.286C-32.6775 777.86 -24.0696 766.55 -11.636 764.957L68.5449 754.284C82.8914 752.213 95.325 764.001 94.0497 778.338Z" stroke="#EDEDED" stroke-opacity="0.05" stroke-width="0.945962" stroke-miterlimit="10"/>
</g>
<mask id="mask62_5032_5810" style="mask-type:luminance" maskUnits="userSpaceOnUse" x="0" y="0" width="1595" height="1593">
<path d="M1593.58 0.472656V1592.53H0.472656V0.472656H1593.58Z" fill="white" stroke="white" stroke-width="0.945962"/>
</mask>
<g mask="url(#mask62_5032_5810)">
<path d="M93.4135 850.503C97.5581 800.483 130.714 757.153 177.898 740.108C191.448 735.17 205.954 744.25 207.867 758.428L218.547 838.556C220.141 850.981 211.533 862.291 199.099 863.884L118.918 874.557C104.731 876.628 92.2977 864.84 93.4135 850.503Z" stroke="#EDEDED" stroke-opacity="0.05" stroke-width="0.945962" stroke-miterlimit="10"/>
</g>
<mask id="mask63_5032_5810" style="mask-type:luminance" maskUnits="userSpaceOnUse" x="0" y="0" width="1595" height="1593">
<path d="M1593.58 0.472656V1592.53H0.472656V0.472656H1593.58Z" fill="white" stroke="white" stroke-width="0.945962"/>
</mask>
<g mask="url(#mask63_5032_5810)">
<path d="M352.124 744.092C347.979 794.112 314.823 837.442 267.639 854.487C254.09 859.425 239.584 850.345 237.671 836.168L226.991 756.04C225.397 743.614 234.005 732.304 246.438 730.711L326.619 720.038C340.806 717.967 353.24 729.755 352.124 744.092Z" stroke="#EDEDED" stroke-opacity="0.05" stroke-width="0.945962" stroke-miterlimit="10"/>
</g>
<mask id="mask64_5032_5810" style="mask-type:luminance" maskUnits="userSpaceOnUse" x="0" y="0" width="1595" height="1593">
<path d="M1593.58 0.472656V1592.53H0.472656V0.472656H1593.58Z" fill="white" stroke="white" stroke-width="0.945962"/>
</mask>
<g mask="url(#mask64_5032_5810)">
<path d="M351.485 816.253C355.629 766.233 388.786 722.903 435.97 705.858C449.519 700.92 464.025 710 465.938 724.178L476.618 804.306C478.212 816.731 469.604 828.041 457.17 829.634L376.99 840.307C362.643 842.378 350.209 830.59 351.485 816.253Z" stroke="#EDEDED" stroke-opacity="0.05" stroke-width="0.945962" stroke-miterlimit="10"/>
</g>
<mask id="mask65_5032_5810" style="mask-type:luminance" maskUnits="userSpaceOnUse" x="0" y="0" width="1595" height="1593">
<path d="M1593.58 0.472656V1592.53H0.472656V0.472656H1593.58Z" fill="white" stroke="white" stroke-width="0.945962"/>
</mask>
<g mask="url(#mask65_5032_5810)">
<path d="M176.308 917.886C172.163 967.906 139.007 1011.24 91.8227 1028.28C78.2732 1033.22 63.7674 1024.14 61.8545 1009.96L51.1743 929.833C49.5803 917.408 58.1882 906.098 70.6218 904.505L150.803 893.831C164.99 891.92 177.423 903.549 176.308 917.886Z" stroke="#EDEDED" stroke-opacity="0.05" stroke-width="0.945962" stroke-miterlimit="10"/>
</g>
<mask id="mask66_5032_5810" style="mask-type:luminance" maskUnits="userSpaceOnUse" x="0" y="0" width="1595" height="1593">
<path d="M1593.58 0.472656V1592.53H0.472656V0.472656H1593.58Z" fill="white" stroke="white" stroke-width="0.945962"/>
</mask>
<g mask="url(#mask66_5032_5810)">
<path d="M175.664 990.21C179.809 940.19 212.965 896.86 260.149 879.815C273.699 874.877 288.205 883.957 290.117 898.135L300.798 978.263C302.392 990.688 293.784 1002 281.35 1003.59L201.169 1014.26C186.823 1016.18 174.389 1004.55 175.664 990.21Z" stroke="#EDEDED" stroke-opacity="0.05" stroke-width="0.945962" stroke-miterlimit="10"/>
</g>
<mask id="mask67_5032_5810" style="mask-type:luminance" maskUnits="userSpaceOnUse" x="0" y="0" width="1595" height="1593">
<path d="M1593.58 0.472656V1592.53H0.472656V0.472656H1593.58Z" fill="white" stroke="white" stroke-width="0.945962"/>
</mask>
<g mask="url(#mask67_5032_5810)">
<path d="M434.218 883.799C430.073 933.819 396.917 977.149 349.733 994.194C336.183 999.132 321.678 990.052 319.765 975.874L309.084 895.747C307.49 883.321 316.098 872.011 328.532 870.418L408.713 859.745C423.059 857.674 435.493 869.462 434.218 883.799Z" stroke="#EDEDED" stroke-opacity="0.05" stroke-width="0.945962" stroke-miterlimit="10"/>
</g>
<mask id="mask68_5032_5810" style="mask-type:luminance" maskUnits="userSpaceOnUse" x="0" y="0" width="1595" height="1593">
<path d="M1593.58 0.472656V1592.53H0.472656V0.472656H1593.58Z" fill="white" stroke="white" stroke-width="0.945962"/>
</mask>
<g mask="url(#mask68_5032_5810)">
<path d="M433.589 955.96C437.734 905.94 470.89 862.61 518.074 845.565C531.624 840.627 546.129 849.707 548.042 863.885L558.723 944.013C560.317 956.438 551.709 967.748 539.275 969.341L459.094 980.014C444.907 982.085 432.473 970.297 433.589 955.96Z" stroke="#EDEDED" stroke-opacity="0.05" stroke-width="0.945962" stroke-miterlimit="10"/>
</g>
<mask id="mask69_5032_5810" style="mask-type:luminance" maskUnits="userSpaceOnUse" x="0" y="0" width="1595" height="1593">
<path d="M1593.58 0.472656V1592.53H0.472656V0.472656H1593.58Z" fill="white" stroke="white" stroke-width="0.945962"/>
</mask>
<g mask="url(#mask69_5032_5810)">
<path d="M626.936 707.612C622.792 757.633 589.636 800.962 542.452 818.007C528.902 822.945 514.396 813.865 512.483 799.688L501.803 719.56C500.209 707.134 508.817 695.824 521.251 694.231L601.432 683.558C615.619 681.646 628.052 693.275 626.936 707.612Z" stroke="#EDEDED" stroke-opacity="0.05" stroke-width="0.945962" stroke-miterlimit="10"/>
</g>
<mask id="mask70_5032_5810" style="mask-type:luminance" maskUnits="userSpaceOnUse" x="0" y="0" width="1595" height="1593">
<path d="M1593.58 0.472656V1592.53H0.472656V0.472656H1593.58Z" fill="white" stroke="white" stroke-width="0.945962"/>
</mask>
<g mask="url(#mask70_5032_5810)">
<path d="M626.297 779.933C630.442 729.912 663.598 686.583 710.782 669.538C724.332 664.599 738.837 673.68 740.75 687.857L751.43 767.985C753.024 780.411 744.417 791.721 731.983 793.314L651.802 803.987C637.456 805.899 625.022 794.11 626.297 779.933Z" stroke="#EDEDED" stroke-opacity="0.05" stroke-width="0.945962" stroke-miterlimit="10"/>
</g>
<mask id="mask71_5032_5810" style="mask-type:luminance" maskUnits="userSpaceOnUse" x="0" y="0" width="1595" height="1593">
<path d="M1593.58 0.472656V1592.53H0.472656V0.472656H1593.58Z" fill="white" stroke="white" stroke-width="0.945962"/>
</mask>
<g mask="url(#mask71_5032_5810)">
<path d="M885.015 673.36C880.87 723.38 847.714 766.71 800.53 783.755C786.98 788.693 772.474 779.613 770.562 765.435L759.881 685.307C758.287 672.882 766.895 661.572 779.329 659.979L859.51 649.306C873.697 647.394 886.13 659.182 885.015 673.36Z" stroke="#EDEDED" stroke-opacity="0.05" stroke-width="0.945962" stroke-miterlimit="10"/>
</g>
<mask id="mask72_5032_5810" style="mask-type:luminance" maskUnits="userSpaceOnUse" x="0" y="0" width="1595" height="1593">
<path d="M1593.58 0.472656V1592.53H0.472656V0.472656H1593.58Z" fill="white" stroke="white" stroke-width="0.945962"/>
</mask>
<g mask="url(#mask72_5032_5810)">
<path d="M884.222 745.683C888.367 695.662 921.523 652.333 968.707 635.288C982.256 630.349 996.762 639.43 998.675 653.607L1009.36 733.735C1010.95 746.161 1002.34 757.471 989.908 759.064L909.727 769.737C895.54 771.649 883.106 760.02 884.222 745.683Z" stroke="#EDEDED" stroke-opacity="0.05" stroke-width="0.945962" stroke-miterlimit="10"/>
</g>
<mask id="mask73_5032_5810" style="mask-type:luminance" maskUnits="userSpaceOnUse" x="0" y="0" width="1595" height="1593">
<path d="M1593.58 0.472656V1592.53H0.472656V0.472656H1593.58Z" fill="white" stroke="white" stroke-width="0.945962"/>
</mask>
<g mask="url(#mask73_5032_5810)">
<path d="M709.202 847.315C705.058 897.335 671.901 940.665 624.717 957.71C611.168 962.648 596.662 953.568 594.749 939.39L584.069 859.262C582.475 846.837 591.083 835.527 603.516 833.934L683.697 823.26C697.884 821.19 710.318 832.978 709.202 847.315Z" stroke="#EDEDED" stroke-opacity="0.05" stroke-width="0.945962" stroke-miterlimit="10"/>
</g>
<mask id="mask74_5032_5810" style="mask-type:luminance" maskUnits="userSpaceOnUse" x="0" y="0" width="1595" height="1593">
<path d="M1593.58 0.472656V1592.53H0.472656V0.472656H1593.58Z" fill="white" stroke="white" stroke-width="0.945962"/>
</mask>
<g mask="url(#mask74_5032_5810)">
<path d="M708.402 919.48C712.546 869.459 745.703 826.13 792.887 809.085C806.436 804.146 820.942 813.226 822.855 827.404L833.535 907.532C835.129 919.957 826.521 931.268 814.088 932.861L733.907 943.534C719.72 945.605 707.286 933.817 708.402 919.48Z" stroke="#EDEDED" stroke-opacity="0.05" stroke-width="0.945962" stroke-miterlimit="10"/>
</g>
<mask id="mask75_5032_5810" style="mask-type:luminance" maskUnits="userSpaceOnUse" x="0" y="0" width="1595" height="1593">
<path d="M1593.58 0.472656V1592.53H0.472656V0.472656H1593.58Z" fill="white" stroke="white" stroke-width="0.945962"/>
</mask>
<g mask="url(#mask75_5032_5810)">
<path d="M967.108 813.065C962.964 863.086 929.807 906.415 882.623 923.46C869.074 928.399 854.568 919.319 852.655 905.141L841.975 825.013C840.381 812.588 848.989 801.277 861.423 799.684L941.603 789.011C955.95 787.099 968.224 798.728 967.108 813.065Z" stroke="#EDEDED" stroke-opacity="0.05" stroke-width="0.945962" stroke-miterlimit="10"/>
</g>
<mask id="mask76_5032_5810" style="mask-type:luminance" maskUnits="userSpaceOnUse" x="0" y="0" width="1595" height="1593">
<path d="M1593.58 0.472656V1592.53H0.472656V0.472656H1593.58Z" fill="white" stroke="white" stroke-width="0.945962"/>
</mask>
<g mask="url(#mask76_5032_5810)">
<path d="M966.481 885.23C970.625 835.209 1003.78 791.88 1050.97 774.835C1064.52 769.896 1079.02 778.976 1080.93 793.154L1091.61 873.282C1093.21 885.707 1084.6 897.018 1072.17 898.611L991.986 909.284C977.639 911.355 965.365 899.567 966.481 885.23Z" stroke="#EDEDED" stroke-opacity="0.05" stroke-width="0.945962" stroke-miterlimit="10"/>
</g>
<mask id="mask77_5032_5810" style="mask-type:luminance" maskUnits="userSpaceOnUse" x="0" y="0" width="1595" height="1593">
<path d="M1593.58 0.472656V1592.53H0.472656V0.472656H1593.58Z" fill="white" stroke="white" stroke-width="0.945962"/>
</mask>
<g mask="url(#mask77_5032_5810)">
<path d="M1159.83 637.041C1155.69 687.062 1122.53 730.391 1075.35 747.436C1061.8 752.375 1047.29 743.294 1045.38 729.117L1034.7 648.989C1033.11 636.563 1041.72 625.253 1054.15 623.66L1134.33 612.987C1148.52 610.916 1160.95 622.704 1159.83 637.041Z" stroke="#EDEDED" stroke-opacity="0.05" stroke-width="0.945962" stroke-miterlimit="10"/>
</g>
<mask id="mask78_5032_5810" style="mask-type:luminance" maskUnits="userSpaceOnUse" x="0" y="0" width="1595" height="1593">
<path d="M1593.58 0.472656V1592.53H0.472656V0.472656H1593.58Z" fill="white" stroke="white" stroke-width="0.945962"/>
</mask>
<g mask="url(#mask78_5032_5810)">
<path d="M1159.04 709.202C1163.19 659.182 1196.34 615.852 1243.53 598.807C1257.08 593.869 1271.58 602.949 1273.5 617.127L1284.18 697.255C1285.77 709.68 1277.16 720.99 1264.73 722.583L1184.55 733.256C1170.36 735.327 1157.93 723.539 1159.04 709.202Z" stroke="#EDEDED" stroke-opacity="0.05" stroke-width="0.945962" stroke-miterlimit="10"/>
</g>
<mask id="mask79_5032_5810" style="mask-type:luminance" maskUnits="userSpaceOnUse" x="0" y="0" width="1595" height="1593">
<path d="M1593.58 0.472656V1592.53H0.472656V0.472656H1593.58Z" fill="white" stroke="white" stroke-width="0.945962"/>
</mask>
<g mask="url(#mask79_5032_5810)">
<path d="M1417.76 602.791C1413.61 652.812 1380.46 696.141 1333.27 713.186C1319.72 718.125 1305.22 709.044 1303.3 694.867L1292.62 614.739C1291.03 602.313 1299.64 591.003 1312.07 589.41L1392.25 578.737C1406.6 576.666 1419.03 588.454 1417.76 602.791Z" stroke="#EDEDED" stroke-opacity="0.05" stroke-width="0.945962" stroke-miterlimit="10"/>
</g>
<mask id="mask80_5032_5810" style="mask-type:luminance" maskUnits="userSpaceOnUse" x="0" y="0" width="1595" height="1593">
<path d="M1593.58 0.472656V1592.53H0.472656V0.472656H1593.58Z" fill="white" stroke="white" stroke-width="0.945962"/>
</mask>
<g mask="url(#mask80_5032_5810)">
<path d="M1417.12 674.956C1421.27 624.936 1454.42 581.606 1501.61 564.561C1515.15 559.623 1529.66 568.703 1531.57 582.881L1542.25 663.009C1543.85 675.434 1535.24 686.744 1522.81 688.337L1442.63 699.01C1428.44 701.081 1416 689.293 1417.12 674.956Z" stroke="#EDEDED" stroke-opacity="0.05" stroke-width="0.945962" stroke-miterlimit="10"/>
</g>
<mask id="mask81_5032_5810" style="mask-type:luminance" maskUnits="userSpaceOnUse" x="0" y="0" width="1595" height="1593">
<path d="M1593.58 0.472656V1592.53H0.472656V0.472656H1593.58Z" fill="white" stroke="white" stroke-width="0.945962"/>
</mask>
<g mask="url(#mask81_5032_5810)">
<path d="M1241.93 776.589C1237.78 826.609 1204.63 869.939 1157.44 886.984C1143.89 891.922 1129.39 882.842 1127.48 868.664L1116.8 788.536C1115.2 776.111 1123.81 764.801 1136.24 763.208L1216.42 752.535C1230.77 750.623 1243.2 762.252 1241.93 776.589Z" stroke="#EDEDED" stroke-opacity="0.05" stroke-width="0.945962" stroke-miterlimit="10"/>
</g>
<mask id="mask82_5032_5810" style="mask-type:luminance" maskUnits="userSpaceOnUse" x="0" y="0" width="1595" height="1593">
<path d="M1593.58 0.472656V1592.53H0.472656V0.472656H1593.58Z" fill="white" stroke="white" stroke-width="0.945962"/>
</mask>
<g mask="url(#mask82_5032_5810)">
<path d="M1241.29 848.909C1245.44 798.889 1278.59 755.559 1325.78 738.514C1339.33 733.576 1353.83 742.656 1355.75 756.834L1366.43 836.962C1368.02 849.387 1359.41 860.697 1346.98 862.29L1266.8 872.963C1252.61 874.875 1240.18 863.246 1241.29 848.909Z" stroke="#EDEDED" stroke-opacity="0.05" stroke-width="0.945962" stroke-miterlimit="10"/>
</g>
<mask id="mask83_5032_5810" style="mask-type:luminance" maskUnits="userSpaceOnUse" x="0" y="0" width="1595" height="1593">
<path d="M1593.58 0.472656V1592.53H0.472656V0.472656H1593.58Z" fill="white" stroke="white" stroke-width="0.945962"/>
</mask>
<g mask="url(#mask83_5032_5810)">
<path d="M1500 742.496C1495.86 792.516 1462.7 835.846 1415.52 852.891C1401.97 857.829 1387.46 848.749 1385.55 834.571L1374.71 754.284C1373.12 741.858 1381.72 730.548 1394.16 728.955L1474.34 718.282C1488.68 716.371 1501.12 728.159 1500 742.496Z" stroke="#EDEDED" stroke-opacity="0.05" stroke-width="0.945962" stroke-miterlimit="10"/>
</g>
<mask id="mask84_5032_5810" style="mask-type:luminance" maskUnits="userSpaceOnUse" x="0" y="0" width="1595" height="1593">
<path d="M1593.58 0.472656V1592.53H0.472656V0.472656H1593.58Z" fill="white" stroke="white" stroke-width="0.945962"/>
</mask>
<g mask="url(#mask84_5032_5810)">
<path d="M1499.37 814.659C1503.51 764.639 1536.67 721.309 1583.85 704.264C1597.4 699.326 1611.91 708.406 1613.82 722.584L1624.5 802.712C1626.09 815.137 1617.49 826.447 1605.05 828.04L1524.87 838.714C1510.53 840.625 1498.09 828.996 1499.37 814.659Z" stroke="#EDEDED" stroke-opacity="0.05" stroke-width="0.945962" stroke-miterlimit="10"/>
</g>
<mask id="mask85_5032_5810" style="mask-type:luminance" maskUnits="userSpaceOnUse" x="0" y="0" width="1595" height="1593">
<path d="M1593.58 0.472656V1592.53H0.472656V0.472656H1593.58Z" fill="white" stroke="white" stroke-width="0.945962"/>
</mask>
<g mask="url(#mask85_5032_5810)">
<path d="M1692.57 566.311C1688.42 616.332 1655.27 659.661 1608.08 676.706C1594.53 681.645 1580.03 672.565 1578.12 658.387L1567.44 578.259C1565.84 565.834 1574.45 554.523 1586.88 552.93L1667.06 542.257C1681.41 540.346 1693.84 551.974 1692.57 566.311Z" stroke="#EDEDED" stroke-opacity="0.05" stroke-width="0.945962" stroke-miterlimit="10"/>
</g>
<mask id="mask86_5032_5810" style="mask-type:luminance" maskUnits="userSpaceOnUse" x="0" y="0" width="1595" height="1593">
<path d="M1593.58 0.472656V1592.53H0.472656V0.472656H1593.58Z" fill="white" stroke="white" stroke-width="0.945962"/>
</mask>
<g mask="url(#mask86_5032_5810)">
<path d="M-59.781 1323.62C-55.6364 1273.6 -22.4801 1230.27 24.7039 1213.23C38.2533 1208.29 52.7592 1217.37 54.6721 1231.55L65.3522 1311.68C66.9463 1324.1 58.3384 1335.41 45.9048 1337.01L-34.2761 1347.68C-48.6226 1349.59 -60.8968 1337.96 -59.781 1323.62Z" stroke="#EDEDED" stroke-opacity="0.05" stroke-width="0.945962" stroke-miterlimit="10"/>
</g>
<mask id="mask87_5032_5810" style="mask-type:luminance" maskUnits="userSpaceOnUse" x="0" y="0" width="1595" height="1593">
<path d="M1593.58 0.472656V1592.53H0.472656V0.472656H1593.58Z" fill="white" stroke="white" stroke-width="0.945962"/>
</mask>
<g mask="url(#mask87_5032_5810)">
<path d="M133.577 1075.28C129.433 1125.3 96.2762 1168.63 49.0922 1185.67C35.5428 1190.61 21.0369 1181.53 19.124 1167.35L8.44387 1087.22C6.84981 1074.8 15.4577 1063.49 27.8913 1061.89L108.072 1051.22C122.259 1049.15 134.693 1060.94 133.577 1075.28Z" stroke="#EDEDED" stroke-opacity="0.05" stroke-width="0.945962" stroke-miterlimit="10"/>
</g>
<mask id="mask88_5032_5810" style="mask-type:luminance" maskUnits="userSpaceOnUse" x="0" y="0" width="1595" height="1593">
<path d="M1593.58 0.472656V1592.53H0.472656V0.472656H1593.58Z" fill="white" stroke="white" stroke-width="0.945962"/>
</mask>
<g mask="url(#mask88_5032_5810)">
<path d="M132.781 1147.44C136.925 1097.42 170.082 1054.09 217.266 1037.05C230.815 1032.11 245.321 1041.19 247.234 1055.37L257.914 1135.49C259.508 1147.92 250.9 1159.23 238.466 1160.82L158.445 1171.65C144.098 1173.57 131.665 1161.78 132.781 1147.44Z" stroke="#EDEDED" stroke-opacity="0.05" stroke-width="0.945962" stroke-miterlimit="10"/>
</g>
<mask id="mask89_5032_5810" style="mask-type:luminance" maskUnits="userSpaceOnUse" x="0" y="0" width="1595" height="1593">
<path d="M1593.58 0.472656V1592.53H0.472656V0.472656H1593.58Z" fill="white" stroke="white" stroke-width="0.945962"/>
</mask>
<g mask="url(#mask89_5032_5810)">
<path d="M391.503 1041.03C387.358 1091.05 354.202 1134.38 307.018 1151.42C293.469 1156.36 278.963 1147.28 277.05 1133.1L266.37 1052.97C264.776 1040.55 273.383 1029.24 285.817 1027.65L365.998 1016.97C380.345 1015.06 392.778 1026.69 391.503 1041.03Z" stroke="#EDEDED" stroke-opacity="0.05" stroke-width="0.945962" stroke-miterlimit="10"/>
</g>
<mask id="mask90_5032_5810" style="mask-type:luminance" maskUnits="userSpaceOnUse" x="0" y="0" width="1595" height="1593">
<path d="M1593.58 0.472656V1592.53H0.472656V0.472656H1593.58Z" fill="white" stroke="white" stroke-width="0.945962"/>
</mask>
<g mask="url(#mask90_5032_5810)">
<path d="M390.859 1113.19C395.003 1063.17 428.16 1019.84 475.344 1002.8C488.893 997.857 503.399 1006.94 505.312 1021.12L515.992 1101.24C517.586 1113.67 508.978 1124.98 496.545 1126.57L416.364 1137.24C402.177 1139.32 389.743 1127.53 390.859 1113.19Z" stroke="#EDEDED" stroke-opacity="0.05" stroke-width="0.945962" stroke-miterlimit="10"/>
</g>
<mask id="mask91_5032_5810" style="mask-type:luminance" maskUnits="userSpaceOnUse" x="0" y="0" width="1595" height="1593">
<path d="M1593.58 0.472656V1592.53H0.472656V0.472656H1593.58Z" fill="white" stroke="white" stroke-width="0.945962"/>
</mask>
<g mask="url(#mask91_5032_5810)">
<path d="M215.675 1214.98C211.53 1265 178.374 1308.33 131.19 1325.37C117.64 1330.31 103.135 1321.23 101.222 1307.05L90.5415 1226.93C88.9475 1214.5 97.5554 1203.19 109.989 1201.6L190.17 1190.92C204.516 1188.85 216.95 1200.64 215.675 1214.98Z" stroke="#EDEDED" stroke-opacity="0.05" stroke-width="0.945962" stroke-miterlimit="10"/>
</g>
<mask id="mask92_5032_5810" style="mask-type:luminance" maskUnits="userSpaceOnUse" x="0" y="0" width="1595" height="1593">
<path d="M1593.58 0.472656V1592.53H0.472656V0.472656H1593.58Z" fill="white" stroke="white" stroke-width="0.945962"/>
</mask>
<g mask="url(#mask92_5032_5810)">
<path d="M215.035 1287.14C219.179 1237.12 252.335 1193.79 299.519 1176.75C313.069 1171.81 327.575 1180.89 329.488 1195.07L340.168 1275.2C341.762 1287.62 333.154 1298.93 320.72 1300.52L240.539 1311.2C226.352 1313.11 213.919 1301.48 215.035 1287.14Z" stroke="#EDEDED" stroke-opacity="0.05" stroke-width="0.945962" stroke-miterlimit="10"/>
</g>
<mask id="mask93_5032_5810" style="mask-type:luminance" maskUnits="userSpaceOnUse" x="0" y="0" width="1595" height="1593">
<path d="M1593.58 0.472656V1592.53H0.472656V0.472656H1593.58Z" fill="white" stroke="white" stroke-width="0.945962"/>
</mask>
<g mask="url(#mask93_5032_5810)">
<path d="M473.753 1180.73C469.608 1230.75 436.452 1274.08 389.268 1291.13C375.719 1296.07 361.213 1286.99 359.3 1272.81L348.62 1192.68C347.026 1180.25 355.634 1168.94 368.067 1167.35L448.248 1156.68C462.435 1154.61 474.869 1166.4 473.753 1180.73Z" stroke="#EDEDED" stroke-opacity="0.05" stroke-width="0.945962" stroke-miterlimit="10"/>
</g>
<mask id="mask94_5032_5810" style="mask-type:luminance" maskUnits="userSpaceOnUse" x="0" y="0" width="1595" height="1593">
<path d="M1593.58 0.472656V1592.53H0.472656V0.472656H1593.58Z" fill="white" stroke="white" stroke-width="0.945962"/>
</mask>
<g mask="url(#mask94_5032_5810)">
<path d="M473.118 1252.89C477.262 1202.87 510.418 1159.54 557.602 1142.5C571.152 1137.56 585.658 1146.64 587.571 1160.82L598.251 1240.95C599.845 1253.37 591.237 1264.68 578.803 1266.27L498.622 1276.95C484.276 1279.02 471.842 1267.23 473.118 1252.89Z" stroke="#EDEDED" stroke-opacity="0.05" stroke-width="0.945962" stroke-miterlimit="10"/>
</g>
<mask id="mask95_5032_5810" style="mask-type:luminance" maskUnits="userSpaceOnUse" x="0" y="0" width="1595" height="1593">
<path d="M1593.58 0.472656V1592.53H0.472656V0.472656H1593.58Z" fill="white" stroke="white" stroke-width="0.945962"/>
</mask>
<g mask="url(#mask95_5032_5810)">
<path d="M666.319 1004.55C662.175 1054.57 629.018 1097.9 581.834 1114.94C568.285 1119.88 553.779 1110.8 551.866 1096.62L541.186 1016.49C539.592 1004.07 548.2 992.758 560.633 991.165L640.814 980.492C655.161 978.58 667.595 990.209 666.319 1004.55Z" stroke="#EDEDED" stroke-opacity="0.05" stroke-width="0.945962" stroke-miterlimit="10"/>
</g>
<mask id="mask96_5032_5810" style="mask-type:luminance" maskUnits="userSpaceOnUse" x="0" y="0" width="1595" height="1593">
<path d="M1593.58 0.472656V1592.53H0.472656V0.472656H1593.58Z" fill="white" stroke="white" stroke-width="0.945962"/>
</mask>
<g mask="url(#mask96_5032_5810)">
<path d="M665.675 1076.87C669.82 1026.85 702.976 983.516 750.16 966.471C763.71 961.533 778.215 970.613 780.128 984.791L790.808 1064.92C792.402 1077.34 783.795 1088.65 771.361 1090.25L691.18 1100.92C676.993 1102.83 664.559 1091.2 665.675 1076.87Z" stroke="#EDEDED" stroke-opacity="0.05" stroke-width="0.945962" stroke-miterlimit="10"/>
</g>
<mask id="mask97_5032_5810" style="mask-type:luminance" maskUnits="userSpaceOnUse" x="0" y="0" width="1595" height="1593">
<path d="M1593.58 0.472656V1592.53H0.472656V0.472656H1593.58Z" fill="white" stroke="white" stroke-width="0.945962"/>
</mask>
<g mask="url(#mask97_5032_5810)">
<path d="M924.39 970.455C920.245 1020.48 887.089 1063.81 839.905 1080.85C826.355 1085.79 811.849 1076.71 809.937 1062.53L799.256 982.403C797.662 969.978 806.27 958.667 818.704 957.074L898.885 946.401C913.072 944.33 925.505 956.118 924.39 970.455Z" stroke="#EDEDED" stroke-opacity="0.05" stroke-width="0.945962" stroke-miterlimit="10"/>
</g>
<mask id="mask98_5032_5810" style="mask-type:luminance" maskUnits="userSpaceOnUse" x="0" y="0" width="1595" height="1593">
<path d="M1593.58 0.472656V1592.53H0.472656V0.472656H1593.58Z" fill="white" stroke="white" stroke-width="0.945962"/>
</mask>
<g mask="url(#mask98_5032_5810)">
<path d="M923.75 1042.62C927.895 992.596 961.051 949.266 1008.24 932.221C1021.78 927.283 1036.29 936.363 1038.2 950.541L1048.88 1030.67C1050.48 1043.09 1041.87 1054.4 1029.44 1056L949.255 1066.67C934.909 1068.58 922.475 1056.95 923.75 1042.62Z" stroke="#EDEDED" stroke-opacity="0.05" stroke-width="0.945962" stroke-miterlimit="10"/>
</g>
<mask id="mask99_5032_5810" style="mask-type:luminance" maskUnits="userSpaceOnUse" x="0" y="0" width="1595" height="1593">
<path d="M1593.58 0.472656V1592.53H0.472656V0.472656H1593.58Z" fill="white" stroke="white" stroke-width="0.945962"/>
</mask>
<g mask="url(#mask99_5032_5810)">
<path d="M748.561 1144.25C744.417 1194.27 711.261 1237.6 664.077 1254.65C650.527 1259.59 636.021 1250.51 634.108 1236.33L623.428 1156.2C621.834 1143.77 630.442 1132.46 642.876 1130.87L723.057 1120.2C737.244 1118.13 749.677 1129.92 748.561 1144.25Z" stroke="#EDEDED" stroke-opacity="0.05" stroke-width="0.945962" stroke-miterlimit="10"/>
</g>
<mask id="mask100_5032_5810" style="mask-type:luminance" maskUnits="userSpaceOnUse" x="0" y="0" width="1595" height="1593">
<path d="M1593.58 0.472656V1592.53H0.472656V0.472656H1593.58Z" fill="white" stroke="white" stroke-width="0.945962"/>
</mask>
<g mask="url(#mask100_5032_5810)">
<path d="M747.93 1216.42C752.075 1166.4 785.231 1123.07 832.415 1106.02C845.964 1101.08 860.47 1110.16 862.383 1124.34L873.063 1204.47C874.657 1216.89 866.049 1228.21 853.616 1229.8L773.435 1240.47C759.088 1242.54 746.655 1230.75 747.93 1216.42Z" stroke="#EDEDED" stroke-opacity="0.05" stroke-width="0.945962" stroke-miterlimit="10"/>
</g>
<mask id="mask101_5032_5810" style="mask-type:luminance" maskUnits="userSpaceOnUse" x="0" y="0" width="1595" height="1593">
<path d="M1593.58 0.472656V1592.53H0.472656V0.472656H1593.58Z" fill="white" stroke="white" stroke-width="0.945962"/>
</mask>
<g mask="url(#mask101_5032_5810)">
<path d="M1006.48 1110C1002.34 1160.02 969.182 1203.35 921.998 1220.4C908.449 1225.34 893.943 1216.26 892.03 1202.08L881.35 1121.95C879.756 1109.52 888.364 1098.21 900.798 1096.62L980.978 1085.95C995.325 1084.04 1007.76 1095.67 1006.48 1110Z" stroke="#EDEDED" stroke-opacity="0.05" stroke-width="0.945962" stroke-miterlimit="10"/>
</g>
<mask id="mask102_5032_5810" style="mask-type:luminance" maskUnits="userSpaceOnUse" x="0" y="0" width="1595" height="1593">
<path d="M1593.58 0.472656V1592.53H0.472656V0.472656H1593.58Z" fill="white" stroke="white" stroke-width="0.945962"/>
</mask>
<g mask="url(#mask102_5032_5810)">
<path d="M1005.85 1182.32C1010 1132.3 1043.16 1088.97 1090.34 1071.93C1103.89 1066.99 1118.4 1076.07 1120.31 1090.25L1130.99 1170.38C1132.58 1182.8 1123.97 1194.11 1111.54 1195.7L1031.36 1206.38C1017.17 1208.29 1004.74 1196.66 1005.85 1182.32Z" stroke="#EDEDED" stroke-opacity="0.05" stroke-width="0.945962" stroke-miterlimit="10"/>
</g>
<mask id="mask103_5032_5810" style="mask-type:luminance" maskUnits="userSpaceOnUse" x="0" y="0" width="1595" height="1593">
<path d="M1593.58 0.472656V1592.53H0.472656V0.472656H1593.58Z" fill="white" stroke="white" stroke-width="0.945962"/>
</mask>
<g mask="url(#mask103_5032_5810)">
<path d="M1199.2 933.975C1195.06 983.995 1161.9 1027.32 1114.72 1044.37C1101.17 1049.31 1086.66 1040.23 1084.75 1026.05L1074.07 945.922C1072.47 933.497 1081.08 922.187 1093.52 920.594L1173.7 909.921C1187.88 907.85 1200.32 919.638 1199.2 933.975Z" stroke="#EDEDED" stroke-opacity="0.05" stroke-width="0.945962" stroke-miterlimit="10"/>
</g>
<mask id="mask104_5032_5810" style="mask-type:luminance" maskUnits="userSpaceOnUse" x="0" y="0" width="1595" height="1593">
<path d="M1593.58 0.472656V1592.53H0.472656V0.472656H1593.58Z" fill="white" stroke="white" stroke-width="0.945962"/>
</mask>
<g mask="url(#mask104_5032_5810)">
<path d="M1198.57 1006.14C1202.71 956.116 1235.87 912.786 1283.05 895.741C1296.6 890.803 1311.11 899.883 1313.02 914.06L1323.7 994.188C1325.29 1006.61 1316.69 1017.92 1304.25 1019.52L1224.07 1030.19C1209.73 1032.26 1197.45 1020.47 1198.57 1006.14Z" stroke="#EDEDED" stroke-opacity="0.05" stroke-width="0.945962" stroke-miterlimit="10"/>
</g>
<mask id="mask105_5032_5810" style="mask-type:luminance" maskUnits="userSpaceOnUse" x="0" y="0" width="1595" height="1593">
<path d="M1593.58 0.472656V1592.53H0.472656V0.472656H1593.58Z" fill="white" stroke="white" stroke-width="0.945962"/>
</mask>
<g mask="url(#mask105_5032_5810)">
<path d="M1457.28 899.725C1453.14 949.746 1419.98 993.075 1372.8 1010.12C1359.25 1015.06 1344.74 1005.98 1342.83 991.801L1332.15 911.673C1330.55 899.248 1339.16 887.937 1351.59 886.344L1431.78 875.671C1445.96 873.76 1458.4 885.388 1457.28 899.725Z" stroke="#EDEDED" stroke-opacity="0.05" stroke-width="0.945962" stroke-miterlimit="10"/>
</g>
<mask id="mask106_5032_5810" style="mask-type:luminance" maskUnits="userSpaceOnUse" x="0" y="0" width="1595" height="1593">
<path d="M1593.58 0.472656V1592.53H0.472656V0.472656H1593.58Z" fill="white" stroke="white" stroke-width="0.945962"/>
</mask>
<g mask="url(#mask106_5032_5810)">
<path d="M1456.48 971.89C1460.62 921.869 1493.78 878.54 1540.96 861.495C1554.51 856.557 1569.02 865.637 1570.93 879.814L1581.61 959.942C1583.21 972.368 1574.6 983.678 1562.17 985.271L1481.98 995.944C1467.8 998.015 1455.36 986.227 1456.48 971.89Z" stroke="#EDEDED" stroke-opacity="0.05" stroke-width="0.945962" stroke-miterlimit="10"/>
</g>
<mask id="mask107_5032_5810" style="mask-type:luminance" maskUnits="userSpaceOnUse" x="0" y="0" width="1595" height="1593">
<path d="M1593.58 0.472656V1592.53H0.472656V0.472656H1593.58Z" fill="white" stroke="white" stroke-width="0.945962"/>
</mask>
<g mask="url(#mask107_5032_5810)">
<path d="M1281.46 1073.52C1277.32 1123.54 1244.16 1166.87 1196.98 1183.92C1183.43 1188.86 1168.92 1179.78 1167.01 1165.6L1156.33 1085.47C1154.73 1073.05 1163.34 1061.74 1175.77 1060.14L1255.96 1049.47C1270.14 1047.56 1282.58 1059.35 1281.46 1073.52Z" stroke="#EDEDED" stroke-opacity="0.05" stroke-width="0.945962" stroke-miterlimit="10"/>
</g>
<mask id="mask108_5032_5810" style="mask-type:luminance" maskUnits="userSpaceOnUse" x="0" y="0" width="1595" height="1593">
<path d="M1593.58 0.472656V1592.53H0.472656V0.472656H1593.58Z" fill="white" stroke="white" stroke-width="0.945962"/>
</mask>
<g mask="url(#mask108_5032_5810)">
<path d="M1280.67 1145.85C1284.81 1095.83 1317.97 1052.5 1365.15 1035.45C1378.7 1030.51 1393.21 1039.59 1395.12 1053.77L1405.8 1133.9C1407.39 1146.32 1398.79 1157.63 1386.35 1159.23L1306.17 1169.9C1291.99 1171.81 1279.55 1160.18 1280.67 1145.85Z" stroke="#EDEDED" stroke-opacity="0.05" stroke-width="0.945962" stroke-miterlimit="10"/>
</g>
<mask id="mask109_5032_5810" style="mask-type:luminance" maskUnits="userSpaceOnUse" x="0" y="0" width="1595" height="1593">
<path d="M1593.58 0.472656V1592.53H0.472656V0.472656H1593.58Z" fill="white" stroke="white" stroke-width="0.945962"/>
</mask>
<g mask="url(#mask109_5032_5810)">
<path d="M1539.37 1039.43C1535.23 1089.45 1502.07 1132.78 1454.89 1149.83C1441.34 1154.77 1426.83 1145.68 1424.92 1131.51L1414.24 1051.38C1412.65 1038.95 1421.25 1027.64 1433.69 1026.05L1513.87 1015.38C1528.22 1013.31 1540.49 1025.09 1539.37 1039.43Z" stroke="#EDEDED" stroke-opacity="0.05" stroke-width="0.945962" stroke-miterlimit="10"/>
</g>
<mask id="mask110_5032_5810" style="mask-type:luminance" maskUnits="userSpaceOnUse" x="0" y="0" width="1595" height="1593">
<path d="M1593.58 0.472656V1592.53H0.472656V0.472656H1593.58Z" fill="white" stroke="white" stroke-width="0.945962"/>
</mask>
<g mask="url(#mask110_5032_5810)">
<path d="M1538.75 1111.6C1542.89 1061.58 1576.05 1018.25 1623.23 1001.2C1636.78 996.264 1651.29 1005.34 1653.2 1019.52L1663.88 1099.65C1665.47 1112.07 1656.86 1123.38 1644.43 1124.98L1564.25 1135.65C1550.06 1137.72 1537.63 1125.93 1538.75 1111.6Z" stroke="#EDEDED" stroke-opacity="0.05" stroke-width="0.945962" stroke-miterlimit="10"/>
</g>
<mask id="mask111_5032_5810" style="mask-type:luminance" maskUnits="userSpaceOnUse" x="0" y="0" width="1595" height="1593">
<path d="M1593.58 0.472656V1592.53H0.472656V0.472656H1593.58Z" fill="white" stroke="white" stroke-width="0.945962"/>
</mask>
<g mask="url(#mask111_5032_5810)">
<path d="M-102.492 1480.85C-98.3473 1430.83 -65.191 1387.5 -18.007 1370.46C-4.45754 1365.52 10.0484 1374.6 11.9612 1388.78L22.6414 1468.91C24.2354 1481.33 15.6275 1492.64 3.19392 1494.24L-76.987 1504.91C-91.3335 1506.98 -103.767 1495.19 -102.492 1480.85Z" stroke="#EDEDED" stroke-opacity="0.05" stroke-width="0.945962" stroke-miterlimit="10"/>
</g>
<mask id="mask112_5032_5810" style="mask-type:luminance" maskUnits="userSpaceOnUse" x="0" y="0" width="1595" height="1593">
<path d="M1593.58 0.472656V1592.53H0.472656V0.472656H1593.58Z" fill="white" stroke="white" stroke-width="0.945962"/>
</mask>
<g mask="url(#mask112_5032_5810)">
<path d="M-20.4029 1620.56C-16.2584 1570.54 16.898 1527.21 64.082 1510.16C77.6314 1505.22 92.1373 1514.3 94.0502 1528.48L104.73 1608.61C106.324 1621.04 97.7165 1632.35 85.2829 1633.94L5.10197 1644.61C-9.0851 1646.52 -21.5187 1634.89 -20.4029 1620.56Z" stroke="#EDEDED" stroke-opacity="0.05" stroke-width="0.945962" stroke-miterlimit="10"/>
</g>
<mask id="mask113_5032_5810" style="mask-type:luminance" maskUnits="userSpaceOnUse" x="0" y="0" width="1595" height="1593">
<path d="M1593.58 0.472656V1592.53H0.472656V0.472656H1593.58Z" fill="white" stroke="white" stroke-width="0.945962"/>
</mask>
<g mask="url(#mask113_5032_5810)">
<path d="M172.956 1372.21C168.811 1422.23 135.655 1465.56 88.4711 1482.6C74.9217 1487.54 60.4158 1478.46 58.5029 1464.28L47.8228 1384.16C46.2287 1371.73 54.8366 1360.42 67.2702 1358.83L147.451 1348.15C161.638 1346.08 174.072 1357.87 172.956 1372.21Z" stroke="#EDEDED" stroke-opacity="0.05" stroke-width="0.945962" stroke-miterlimit="10"/>
</g>
<mask id="mask114_5032_5810" style="mask-type:luminance" maskUnits="userSpaceOnUse" x="0" y="0" width="1595" height="1593">
<path d="M1593.58 0.472656V1592.53H0.472656V0.472656H1593.58Z" fill="white" stroke="white" stroke-width="0.945962"/>
</mask>
<g mask="url(#mask114_5032_5810)">
<path d="M172.321 1444.37C176.465 1394.35 209.622 1351.02 256.806 1333.98C270.355 1329.04 284.861 1338.12 286.774 1352.3L297.454 1432.43C299.048 1444.85 290.44 1456.16 278.006 1457.76L197.826 1468.43C183.479 1470.5 171.045 1458.71 172.321 1444.37Z" stroke="#EDEDED" stroke-opacity="0.05" stroke-width="0.945962" stroke-miterlimit="10"/>
</g>
<mask id="mask115_5032_5810" style="mask-type:luminance" maskUnits="userSpaceOnUse" x="0" y="0" width="1595" height="1593">
<path d="M1593.58 0.472656V1592.53H0.472656V0.472656H1593.58Z" fill="white" stroke="white" stroke-width="0.945962"/>
</mask>
<g mask="url(#mask115_5032_5810)">
<path d="M431.034 1337.96C426.89 1387.98 393.733 1431.31 346.549 1448.35C333 1453.29 318.494 1444.21 316.581 1430.04L305.901 1349.91C304.307 1337.48 312.915 1326.17 325.348 1324.58L405.529 1313.91C419.716 1311.99 432.15 1323.62 431.034 1337.96Z" stroke="#EDEDED" stroke-opacity="0.05" stroke-width="0.945962" stroke-miterlimit="10"/>
</g>
<mask id="mask116_5032_5810" style="mask-type:luminance" maskUnits="userSpaceOnUse" x="0" y="0" width="1595" height="1593">
<path d="M1593.58 0.472656V1592.53H0.472656V0.472656H1593.58Z" fill="white" stroke="white" stroke-width="0.945962"/>
</mask>
<g mask="url(#mask116_5032_5810)">
<path d="M430.23 1410.28C434.374 1360.26 467.531 1316.93 514.715 1299.89C528.264 1294.95 542.77 1304.03 544.683 1318.21L555.363 1398.34C556.957 1410.76 548.349 1422.07 535.916 1423.67L455.735 1434.34C441.548 1436.25 429.114 1424.62 430.23 1410.28Z" stroke="#EDEDED" stroke-opacity="0.05" stroke-width="0.945962" stroke-miterlimit="10"/>
</g>
<mask id="mask117_5032_5810" style="mask-type:luminance" maskUnits="userSpaceOnUse" x="0" y="0" width="1595" height="1593">
<path d="M1593.58 0.472656V1592.53H0.472656V0.472656H1593.58Z" fill="white" stroke="white" stroke-width="0.945962"/>
</mask>
<g mask="url(#mask117_5032_5810)">
<path d="M255.206 1511.92C251.061 1561.94 217.905 1605.27 170.721 1622.31C157.172 1627.25 142.666 1618.17 140.753 1603.99L130.073 1523.86C128.479 1511.44 137.087 1500.13 149.52 1498.54L229.701 1487.86C243.888 1485.79 256.322 1497.58 255.206 1511.92Z" stroke="#EDEDED" stroke-opacity="0.05" stroke-width="0.945962" stroke-miterlimit="10"/>
</g>
<mask id="mask118_5032_5810" style="mask-type:luminance" maskUnits="userSpaceOnUse" x="0" y="0" width="1595" height="1593">
<path d="M1593.58 0.472656V1592.53H0.472656V0.472656H1593.58Z" fill="white" stroke="white" stroke-width="0.945962"/>
</mask>
<g mask="url(#mask118_5032_5810)">
<path d="M254.41 1584.08C258.554 1534.06 291.71 1490.73 338.894 1473.69C352.444 1468.75 366.95 1477.83 368.863 1492.01L379.543 1572.13C381.137 1584.56 372.529 1595.87 360.095 1597.46L279.914 1608.14C265.727 1610.21 253.294 1598.42 254.41 1584.08Z" stroke="#EDEDED" stroke-opacity="0.05" stroke-width="0.945962" stroke-miterlimit="10"/>
</g>
<mask id="mask119_5032_5810" style="mask-type:luminance" maskUnits="userSpaceOnUse" x="0" y="0" width="1595" height="1593">
<path d="M1593.58 0.472656V1592.53H0.472656V0.472656H1593.58Z" fill="white" stroke="white" stroke-width="0.945962"/>
</mask>
<g mask="url(#mask119_5032_5810)">
<path d="M513.124 1477.67C508.979 1527.69 475.823 1571.02 428.639 1588.06C415.09 1593 400.584 1583.92 398.671 1569.74L387.991 1489.61C386.397 1477.19 395.005 1465.88 407.438 1464.29L487.619 1453.61C501.966 1451.54 514.24 1463.33 513.124 1477.67Z" stroke="#EDEDED" stroke-opacity="0.05" stroke-width="0.945962" stroke-miterlimit="10"/>
</g>
<mask id="mask120_5032_5810" style="mask-type:luminance" maskUnits="userSpaceOnUse" x="0" y="0" width="1595" height="1593">
<path d="M1593.58 0.472656V1592.53H0.472656V0.472656H1593.58Z" fill="white" stroke="white" stroke-width="0.945962"/>
</mask>
<g mask="url(#mask120_5032_5810)">
<path d="M512.489 1549.83C516.633 1499.81 549.789 1456.48 596.973 1439.44C610.523 1434.5 625.029 1443.58 626.942 1457.76L637.622 1537.88C639.216 1550.31 630.608 1561.62 618.174 1563.21L537.993 1573.89C523.647 1575.96 511.373 1564.17 512.489 1549.83Z" stroke="#EDEDED" stroke-opacity="0.05" stroke-width="0.945962" stroke-miterlimit="10"/>
</g>
<mask id="mask121_5032_5810" style="mask-type:luminance" maskUnits="userSpaceOnUse" x="0" y="0" width="1595" height="1593">
<path d="M1593.58 0.472656V1592.53H0.472656V0.472656H1593.58Z" fill="white" stroke="white" stroke-width="0.945962"/>
</mask>
<g mask="url(#mask121_5032_5810)">
<path d="M705.843 1301.64C701.698 1351.66 668.542 1394.99 621.358 1412.03C607.808 1416.97 593.303 1407.89 591.39 1393.71L580.709 1313.59C579.115 1301.16 587.723 1289.85 600.157 1288.26L680.338 1277.58C694.525 1275.51 706.959 1287.3 705.843 1301.64Z" stroke="#EDEDED" stroke-opacity="0.05" stroke-width="0.945962" stroke-miterlimit="10"/>
</g>
<mask id="mask122_5032_5810" style="mask-type:luminance" maskUnits="userSpaceOnUse" x="0" y="0" width="1595" height="1593">
<path d="M1593.58 0.472656V1592.53H0.472656V0.472656H1593.58Z" fill="white" stroke="white" stroke-width="0.945962"/>
</mask>
<g mask="url(#mask122_5032_5810)">
<path d="M705.042 1373.8C709.187 1323.78 742.343 1280.45 789.527 1263.41C803.077 1258.47 817.583 1267.55 819.495 1281.73L830.176 1361.86C831.77 1374.28 823.162 1385.59 810.728 1387.18L730.547 1397.86C716.36 1399.77 703.927 1388.14 705.042 1373.8Z" stroke="#EDEDED" stroke-opacity="0.05" stroke-width="0.945962" stroke-miterlimit="10"/>
</g>
<mask id="mask123_5032_5810" style="mask-type:luminance" maskUnits="userSpaceOnUse" x="0" y="0" width="1595" height="1593">
<path d="M1593.58 0.472656V1592.53H0.472656V0.472656H1593.58Z" fill="white" stroke="white" stroke-width="0.945962"/>
</mask>
<g mask="url(#mask123_5032_5810)">
<path d="M963.765 1267.39C959.62 1317.41 926.464 1360.74 879.28 1377.78C865.73 1382.72 851.224 1373.64 849.312 1359.46L838.631 1279.34C837.037 1266.91 845.645 1255.6 858.079 1254.01L938.26 1243.33C952.606 1241.26 965.04 1253.05 963.765 1267.39Z" stroke="#EDEDED" stroke-opacity="0.05" stroke-width="0.945962" stroke-miterlimit="10"/>
</g>
<mask id="mask124_5032_5810" style="mask-type:luminance" maskUnits="userSpaceOnUse" x="0" y="0" width="1595" height="1593">
<path d="M1593.58 0.472656V1592.53H0.472656V0.472656H1593.58Z" fill="white" stroke="white" stroke-width="0.945962"/>
</mask>
<g mask="url(#mask124_5032_5810)">
<path d="M963.121 1339.55C967.265 1289.53 1000.42 1246.2 1047.61 1229.16C1061.15 1224.22 1075.66 1233.3 1077.57 1247.48L1088.25 1327.61C1089.85 1340.03 1081.24 1351.34 1068.81 1352.93L988.625 1363.61C974.438 1365.68 962.005 1353.89 963.121 1339.55Z" stroke="#EDEDED" stroke-opacity="0.05" stroke-width="0.945962" stroke-miterlimit="10"/>
</g>
<mask id="mask125_5032_5810" style="mask-type:luminance" maskUnits="userSpaceOnUse" x="0" y="0" width="1595" height="1593">
<path d="M1593.58 0.472656V1592.53H0.472656V0.472656H1593.58Z" fill="white" stroke="white" stroke-width="0.945962"/>
</mask>
<g mask="url(#mask125_5032_5810)">
<path d="M787.937 1441.19C783.792 1491.21 750.636 1534.54 703.452 1551.58C689.902 1556.52 675.396 1547.44 673.483 1533.26L662.803 1453.13C661.209 1440.71 669.817 1429.4 682.251 1427.81L762.432 1417.13C776.778 1415.22 789.212 1426.85 787.937 1441.19Z" stroke="#EDEDED" stroke-opacity="0.05" stroke-width="0.945962" stroke-miterlimit="10"/>
</g>
<mask id="mask126_5032_5810" style="mask-type:luminance" maskUnits="userSpaceOnUse" x="0" y="0" width="1595" height="1593">
<path d="M1593.58 0.472656V1592.53H0.472656V0.472656H1593.58Z" fill="white" stroke="white" stroke-width="0.945962"/>
</mask>
<g mask="url(#mask126_5032_5810)">
<path d="M787.3 1513.35C791.445 1463.33 824.601 1420 871.785 1402.96C885.335 1398.02 899.84 1407.1 901.753 1421.28L912.433 1501.4C914.027 1513.83 905.42 1525.14 892.986 1526.73L812.805 1537.4C798.618 1539.48 786.184 1527.69 787.3 1513.35Z" stroke="#EDEDED" stroke-opacity="0.05" stroke-width="0.945962" stroke-miterlimit="10"/>
</g>
<mask id="mask127_5032_5810" style="mask-type:luminance" maskUnits="userSpaceOnUse" x="0" y="0" width="1595" height="1593">
<path d="M1593.58 0.472656V1592.53H0.472656V0.472656H1593.58Z" fill="white" stroke="white" stroke-width="0.945962"/>
</mask>
<g mask="url(#mask127_5032_5810)">
<path d="M1046.01 1406.94C1041.87 1456.96 1008.71 1500.29 961.53 1517.34C947.98 1522.27 933.474 1513.19 931.562 1499.02L920.881 1418.89C919.287 1406.46 927.895 1395.15 940.329 1393.56L1020.51 1382.89C1034.7 1380.97 1047.13 1392.6 1046.01 1406.94Z" stroke="#EDEDED" stroke-opacity="0.05" stroke-width="0.945962" stroke-miterlimit="10"/>
</g>
<mask id="mask128_5032_5810" style="mask-type:luminance" maskUnits="userSpaceOnUse" x="0" y="0" width="1595" height="1593">
<path d="M1593.58 0.472656V1592.53H0.472656V0.472656H1593.58Z" fill="white" stroke="white" stroke-width="0.945962"/>
</mask>
<g mask="url(#mask128_5032_5810)">
<path d="M1045.38 1479.26C1049.52 1429.24 1082.68 1385.91 1129.86 1368.87C1143.41 1363.93 1157.92 1373.01 1159.83 1387.19L1170.51 1467.31C1172.1 1479.74 1163.49 1491.05 1151.06 1492.64L1070.88 1503.32C1056.53 1505.23 1044.1 1493.6 1045.38 1479.26Z" stroke="#EDEDED" stroke-opacity="0.05" stroke-width="0.945962" stroke-miterlimit="10"/>
</g>
<mask id="mask129_5032_5810" style="mask-type:luminance" maskUnits="userSpaceOnUse" x="0" y="0" width="1595" height="1593">
<path d="M1593.58 0.472656V1592.53H0.472656V0.472656H1593.58Z" fill="white" stroke="white" stroke-width="0.945962"/>
</mask>
<g mask="url(#mask129_5032_5810)">
<path d="M1238.58 1230.91C1234.43 1280.93 1201.28 1324.26 1154.09 1341.3C1140.54 1346.24 1126.04 1337.16 1124.12 1322.98L1113.44 1242.86C1111.85 1230.43 1120.46 1219.12 1132.89 1217.53L1213.07 1206.85C1227.42 1204.78 1239.85 1216.57 1238.58 1230.91Z" stroke="#EDEDED" stroke-opacity="0.05" stroke-width="0.945962" stroke-miterlimit="10"/>
</g>
<mask id="mask130_5032_5810" style="mask-type:luminance" maskUnits="userSpaceOnUse" x="0" y="0" width="1595" height="1593">
<path d="M1593.58 0.472656V1592.53H0.472656V0.472656H1593.58Z" fill="white" stroke="white" stroke-width="0.945962"/>
</mask>
<g mask="url(#mask130_5032_5810)">
<path d="M1237.93 1303.07C1242.08 1253.05 1275.23 1209.72 1322.42 1192.68C1335.97 1187.74 1350.47 1196.82 1352.39 1211L1363.07 1291.13C1364.66 1303.55 1356.05 1314.86 1343.62 1316.45L1263.44 1327.13C1249.25 1329.2 1236.82 1317.41 1237.93 1303.07Z" stroke="#EDEDED" stroke-opacity="0.05" stroke-width="0.945962" stroke-miterlimit="10"/>
</g>
<mask id="mask131_5032_5810" style="mask-type:luminance" maskUnits="userSpaceOnUse" x="0" y="0" width="1595" height="1593">
<path d="M1593.58 0.472656V1592.53H0.472656V0.472656H1593.58Z" fill="white" stroke="white" stroke-width="0.945962"/>
</mask>
<g mask="url(#mask131_5032_5810)">
<path d="M1496.66 1196.66C1492.51 1246.68 1459.35 1290.01 1412.17 1307.06C1398.62 1312 1384.12 1302.92 1382.2 1288.74L1371.52 1208.61C1369.93 1196.19 1378.54 1184.87 1390.97 1183.28L1471.15 1172.61C1485.34 1170.7 1497.77 1182.33 1496.66 1196.66Z" stroke="#EDEDED" stroke-opacity="0.05" stroke-width="0.945962" stroke-miterlimit="10"/>
</g>
<mask id="mask132_5032_5810" style="mask-type:luminance" maskUnits="userSpaceOnUse" x="0" y="0" width="1595" height="1593">
<path d="M1593.58 0.472656V1592.53H0.472656V0.472656H1593.58Z" fill="white" stroke="white" stroke-width="0.945962"/>
</mask>
<g mask="url(#mask132_5032_5810)">
<path d="M1496.02 1268.99C1500.16 1218.97 1533.32 1175.64 1580.5 1158.59C1594.05 1153.65 1608.56 1162.73 1610.47 1176.91L1621.15 1257.04C1622.74 1269.47 1614.14 1280.78 1601.7 1282.37L1521.52 1293.04C1507.17 1294.95 1494.74 1283.17 1496.02 1268.99Z" stroke="#EDEDED" stroke-opacity="0.05" stroke-width="0.945962" stroke-miterlimit="10"/>
</g>
<mask id="mask133_5032_5810" style="mask-type:luminance" maskUnits="userSpaceOnUse" x="0" y="0" width="1595" height="1593">
<path d="M1593.58 0.472656V1592.53H0.472656V0.472656H1593.58Z" fill="white" stroke="white" stroke-width="0.945962"/>
</mask>
<g mask="url(#mask133_5032_5810)">
<path d="M1320.83 1370.62C1316.68 1420.64 1283.53 1463.97 1236.34 1481.01C1222.79 1485.95 1208.29 1476.87 1206.37 1462.69L1195.69 1382.56C1194.1 1370.14 1202.71 1358.83 1215.14 1357.23L1295.32 1346.56C1309.51 1344.49 1321.94 1356.28 1320.83 1370.62Z" stroke="#EDEDED" stroke-opacity="0.05" stroke-width="0.945962" stroke-miterlimit="10"/>
</g>
<mask id="mask134_5032_5810" style="mask-type:luminance" maskUnits="userSpaceOnUse" x="0" y="0" width="1595" height="1593">
<path d="M1593.58 0.472656V1592.53H0.472656V0.472656H1593.58Z" fill="white" stroke="white" stroke-width="0.945962"/>
</mask>
<g mask="url(#mask134_5032_5810)">
<path d="M1320.19 1442.78C1324.33 1392.76 1357.49 1349.43 1404.67 1332.39C1418.22 1327.45 1432.73 1336.53 1434.64 1350.7L1445.32 1430.83C1446.92 1443.26 1438.31 1454.57 1425.87 1456.16L1345.69 1466.83C1331.35 1468.75 1318.91 1457.12 1320.19 1442.78Z" stroke="#EDEDED" stroke-opacity="0.05" stroke-width="0.945962" stroke-miterlimit="10"/>
</g>
<mask id="mask135_5032_5810" style="mask-type:luminance" maskUnits="userSpaceOnUse" x="0" y="0" width="1595" height="1593">
<path d="M1593.58 0.472656V1592.53H0.472656V0.472656H1593.58Z" fill="white" stroke="white" stroke-width="0.945962"/>
</mask>
<g mask="url(#mask135_5032_5810)">
<path d="M1578.91 1336.37C1574.76 1386.39 1541.6 1429.72 1494.42 1446.76C1480.87 1451.7 1466.37 1442.62 1464.45 1428.44L1453.77 1348.32C1452.18 1335.89 1460.79 1324.58 1473.22 1322.99L1553.4 1312.32C1567.59 1310.24 1580.02 1322.03 1578.91 1336.37Z" stroke="#EDEDED" stroke-opacity="0.05" stroke-width="0.945962" stroke-miterlimit="10"/>
</g>
<mask id="mask136_5032_5810" style="mask-type:luminance" maskUnits="userSpaceOnUse" x="0" y="0" width="1595" height="1593">
<path d="M1593.58 0.472656V1592.53H0.472656V0.472656H1593.58Z" fill="white" stroke="white" stroke-width="0.945962"/>
</mask>
<g mask="url(#mask136_5032_5810)">
<path d="M1578.11 1408.53C1582.26 1358.51 1615.41 1315.18 1662.6 1298.14C1676.15 1293.2 1690.65 1302.28 1692.57 1316.45L1703.25 1396.58C1704.84 1409.01 1696.23 1420.32 1683.8 1421.91L1603.62 1432.58C1589.43 1434.66 1577 1422.87 1578.11 1408.53Z" stroke="#EDEDED" stroke-opacity="0.05" stroke-width="0.945962" stroke-miterlimit="10"/>
</g>
<mask id="mask137_5032_5810" style="mask-type:luminance" maskUnits="userSpaceOnUse" x="0" y="0" width="1595" height="1593">
<path d="M1593.58 0.472656V1592.53H0.472656V0.472656H1593.58Z" fill="white" stroke="white" stroke-width="0.945962"/>
</mask>
<g mask="url(#mask137_5032_5810)">
<path d="M469.766 1707.22C473.911 1657.2 507.067 1613.87 554.251 1596.82C567.8 1591.88 582.306 1600.96 584.219 1615.14L594.899 1695.27C596.493 1707.7 587.885 1719.01 575.452 1720.6L495.271 1731.27C480.924 1733.18 468.491 1721.55 469.766 1707.22Z" stroke="#EDEDED" stroke-opacity="0.05" stroke-width="0.945962" stroke-miterlimit="10"/>
</g>
<mask id="mask138_5032_5810" style="mask-type:luminance" maskUnits="userSpaceOnUse" x="0" y="0" width="1595" height="1593">
<path d="M1593.58 0.472656V1592.53H0.472656V0.472656H1593.58Z" fill="white" stroke="white" stroke-width="0.945962"/>
</mask>
<g mask="url(#mask138_5032_5810)">
<path d="M745.218 1598.58C741.073 1648.6 707.917 1691.93 660.733 1708.97C647.183 1713.91 632.677 1704.83 630.765 1690.65L620.084 1610.52C618.49 1598.1 627.098 1586.79 639.532 1585.2L719.713 1574.52C733.9 1572.45 746.333 1584.24 745.218 1598.58Z" stroke="#EDEDED" stroke-opacity="0.05" stroke-width="0.945962" stroke-miterlimit="10"/>
</g>
<mask id="mask139_5032_5810" style="mask-type:luminance" maskUnits="userSpaceOnUse" x="0" y="0" width="1595" height="1593">
<path d="M1593.58 0.472656V1592.53H0.472656V0.472656H1593.58Z" fill="white" stroke="white" stroke-width="0.945962"/>
</mask>
<g mask="url(#mask139_5032_5810)">
<path d="M744.578 1670.74C748.723 1620.72 781.879 1577.39 829.063 1560.34C842.613 1555.4 857.119 1564.48 859.032 1578.66L869.712 1658.79C871.306 1671.22 862.698 1682.53 850.264 1684.12L770.083 1694.79C755.737 1696.86 743.303 1685.07 744.578 1670.74Z" stroke="#EDEDED" stroke-opacity="0.05" stroke-width="0.945962" stroke-miterlimit="10"/>
</g>
<mask id="mask140_5032_5810" style="mask-type:luminance" maskUnits="userSpaceOnUse" x="0" y="0" width="1595" height="1593">
<path d="M1593.58 0.472656V1592.53H0.472656V0.472656H1593.58Z" fill="white" stroke="white" stroke-width="0.945962"/>
</mask>
<g mask="url(#mask140_5032_5810)">
<path d="M1003.3 1564.33C999.151 1614.35 965.995 1657.68 918.811 1674.72C905.262 1679.66 890.756 1670.58 888.843 1656.4L878.163 1576.27C876.569 1563.85 885.176 1552.54 897.61 1550.95L977.791 1540.27C991.978 1538.2 1004.41 1549.99 1003.3 1564.33Z" stroke="#EDEDED" stroke-opacity="0.05" stroke-width="0.945962" stroke-miterlimit="10"/>
</g>
<mask id="mask141_5032_5810" style="mask-type:luminance" maskUnits="userSpaceOnUse" x="0" y="0" width="1595" height="1593">
<path d="M1593.58 0.472656V1592.53H0.472656V0.472656H1593.58Z" fill="white" stroke="white" stroke-width="0.945962"/>
</mask>
<g mask="url(#mask141_5032_5810)">
<path d="M1002.5 1636.49C1006.65 1586.47 1039.8 1543.14 1086.99 1526.09C1100.54 1521.15 1115.04 1530.23 1116.96 1544.41L1127.64 1624.54C1129.23 1636.97 1120.62 1648.28 1108.19 1649.87L1028.01 1660.54C1013.82 1662.61 1001.39 1650.82 1002.5 1636.49Z" stroke="#EDEDED" stroke-opacity="0.05" stroke-width="0.945962" stroke-miterlimit="10"/>
</g>
<mask id="mask142_5032_5810" style="mask-type:luminance" maskUnits="userSpaceOnUse" x="0" y="0" width="1595" height="1593">
<path d="M1593.58 0.472656V1592.53H0.472656V0.472656H1593.58Z" fill="white" stroke="white" stroke-width="0.945962"/>
</mask>
<g mask="url(#mask142_5032_5810)">
<path d="M1278.12 1527.85C1273.97 1577.87 1240.82 1621.2 1193.63 1638.24C1180.08 1643.18 1165.58 1634.1 1163.66 1619.92L1152.98 1539.79C1151.39 1527.37 1160 1516.06 1172.43 1514.47L1252.61 1503.79C1266.8 1501.88 1279.23 1513.51 1278.12 1527.85Z" stroke="#EDEDED" stroke-opacity="0.05" stroke-width="0.945962" stroke-miterlimit="10"/>
</g>
<mask id="mask143_5032_5810" style="mask-type:luminance" maskUnits="userSpaceOnUse" x="0" y="0" width="1595" height="1593">
<path d="M1593.58 0.472656V1592.53H0.472656V0.472656H1593.58Z" fill="white" stroke="white" stroke-width="0.945962"/>
</mask>
<g mask="url(#mask143_5032_5810)">
<path d="M1277.47 1600.01C1281.61 1549.99 1314.77 1506.66 1361.95 1489.62C1375.5 1484.68 1390.01 1493.76 1391.92 1507.94L1402.6 1588.06C1404.2 1600.49 1395.59 1611.8 1383.15 1613.39L1302.97 1624.07C1288.63 1626.14 1276.19 1614.35 1277.47 1600.01Z" stroke="#EDEDED" stroke-opacity="0.05" stroke-width="0.945962" stroke-miterlimit="10"/>
</g>
</svg>
