<svg width="142" height="39" viewBox="0 0 142 39" fill="none" xmlns="http://www.w3.org/2000/svg">
<path d="M13.8025 0.844727C26.301 0.844727 33.3931 7.53973 33.3931 19.4997C33.3931 31.4597 26.301 38.1547 13.8025 38.1547H0V0.844727H13.8025ZM10.2723 29.3472H13.5162C19.4634 29.3472 22.7073 25.8372 22.7073 19.4997C22.7073 13.1622 19.4634 9.65223 13.5162 9.65223H10.2723V29.3472Z" fill="#F7F7F7"/>
<path d="M70.5066 19.5C70.5066 31.46 63.4781 39 52.4107 39C41.3751 39 34.3467 31.46 34.3467 19.5C34.3467 7.54 41.3751 0 52.4107 0C63.4781 0 70.5066 7.54 70.5066 19.5ZM45.1279 19.5C45.1279 26.26 47.7357 30.095 52.4107 30.095C57.1176 30.095 59.7572 26.26 59.7572 19.5C59.7572 12.74 57.1494 8.905 52.4107 8.905C47.7357 8.905 45.1279 12.74 45.1279 19.5Z" fill="#F7F7F7"/>
<path d="M85.2634 0.844727C97.7938 0.844727 104.854 7.53973 104.854 19.4997C104.854 31.4597 97.7619 38.1547 85.2634 38.1547H71.4609V0.844727H85.2634ZM81.7333 29.3472H84.9772C90.9243 29.3472 94.1682 25.8372 94.1682 19.4997C94.1682 13.1622 90.9243 9.65223 84.9772 9.65223H81.7333V29.3472Z" fill="#F7F7F7"/>
<path d="M142 19.5C142 31.46 134.971 39 123.904 39C112.868 39 105.84 31.46 105.84 19.5C105.84 7.54 112.868 0 123.904 0C134.971 0 142 7.54 142 19.5ZM116.589 19.5C116.589 26.26 119.197 30.095 123.872 30.095C128.579 30.095 131.219 26.26 131.219 19.5C131.219 12.74 128.611 8.905 123.872 8.905C119.229 8.905 116.589 12.74 116.589 19.5Z" fill="#F7F7F7"/>
</svg>
